<?xml version="1.0" encoding="utf-8"?>
<!-- Generator: Adobe Illustrator 21.0.0, SVG Export Plug-In . SVG Version: 6.00 Build 0)  -->
<svg version="1.1" id="Layer_1" xmlns="http://www.w3.org/2000/svg" xmlns:xlink="http://www.w3.org/1999/xlink" x="0px" y="0px"
	 viewBox="0 0 64 64" style="enable-background:new 0 0 64 64;" xml:space="preserve">
<g>
	<polygon points="32,9.8 32,22.2 22.6,31.6 25.4,34.4 36,23.8 36,9.8 44.6,18.4 47.4,15.6 34,2.2 20.6,15.6 23.4,18.4 	"/>
	<path d="M49,36c1.7,0,3.1-1,3.7-2.5H60v-3h-7.3C52.1,29,50.7,28,49,28c-2.2,0-4,1.8-4,4c0,0.4,0.1,0.7,0.1,1l-10.1,7.6
		C34.5,40.2,33.8,40,33,40c-2,0-3.7,1.5-3.9,3.4l-8.8,2.2c-0.7-1-1.9-1.6-3.2-1.6c-2.2,0-4,1.8-4,4c0,0.6,0.1,1.1,0.3,1.6L8,54.9V21
		H4v36v4h4h52v-4H10.1l5.3-5.3c0.5,0.2,1,0.3,1.6,0.3c2,0,3.7-1.5,3.9-3.4l8.8-2.2c0.7,1,1.9,1.6,3.2,1.6c2.2,0,4-1.8,4-4
		c0-0.4-0.1-0.7-0.1-1l10.1-7.6C47.5,35.8,48.2,36,49,36z"/>
</g>
</svg>
