<?xml version="1.0" encoding="utf-8"?>
<!-- Generator: Adobe Illustrator 21.0.0, SVG Export Plug-In . SVG Version: 6.00 Build 0)  -->
<svg version="1.1" id="Layer_1" xmlns="http://www.w3.org/2000/svg" xmlns:xlink="http://www.w3.org/1999/xlink" x="0px" y="0px"
	 viewBox="0 0 64 64" style="enable-background:new 0 0 64 64;" xml:space="preserve">
<path d="M32,49C11.2,49-0.1,33.8-0.6,33.2L-1.5,32l0.9-1.2C-0.1,30.2,11.2,15,32,15s32.1,15.2,32.6,15.8l0.9,1.2l-0.9,1.2
	C64.1,33.8,52.8,49,32,49z M3.6,32c3,3.4,12.9,13,28.4,13c15.5,0,25.4-9.6,28.4-13c-3-3.4-12.9-13-28.4-13C16.5,19,6.6,28.6,3.6,32z
	"/>
<path d="M32,41c-5,0-9-4-9-9c0-5,4-9,9-9c5,0,9,4,9,9C41,37,37,41,32,41z M32,27c-2.8,0-5,2.2-5,5s2.2,5,5,5s5-2.2,5-5
	S34.8,27,32,27z"/>
</svg>
