<?xml version="1.0" encoding="utf-8"?>
<!-- Generator: Adobe Illustrator 21.0.0, SVG Export Plug-In . SVG Version: 6.00 Build 0)  -->
<svg version="1.1" id="Layer_1" xmlns="http://www.w3.org/2000/svg" xmlns:xlink="http://www.w3.org/1999/xlink" x="0px" y="0px"
	 viewBox="0 0 64 64" style="enable-background:new 0 0 64 64;" xml:space="preserve">
<g>
	<path d="M32,8c6.6,0,12,5.4,12,12s-5.4,12-12,12s-12-5.4-12-12S25.4,8,32,8 M32,4c-8.8,0-16,7.2-16,16s7.2,16,16,16s16-7.2,16-16
		S40.8,4,32,4L32,4z"/>
	<path d="M32,36c13.2,0,24,10.8,24,24h4c0-15.5-12.5-28-28-28S4,44.5,4,60h4C8,46.8,18.8,36,32,36z"/>
</g>
</svg>
