<?xml version="1.0" encoding="utf-8"?>
<!-- Generator: Adobe Illustrator 21.0.0, SVG Export Plug-In . SVG Version: 6.00 Build 0)  -->
<svg version="1.1" id="Layer_1" xmlns="http://www.w3.org/2000/svg" xmlns:xlink="http://www.w3.org/1999/xlink" x="0px" y="0px"
	 viewBox="0 0 64 64" style="enable-background:new 0 0 64 64;" xml:space="preserve">
<g>
	<path d="M0,54h64V18H0V54z M4,22h56v28H4V22z"/>
	<polygon points="34,36.2 34,26.2 19.6,40.6 22.4,43.4 30,35.8 30,45.8 41.4,34.4 38.6,31.6 	"/>
	<polygon points="52,10 52,4 44,4 44,10 20,10 20,4 12,4 12,10 0,10 0,14 64,14 64,10 	"/>
	<polygon points="52.5,31 49.5,31 49.5,34.5 46,34.5 46,37.5 49.5,37.5 49.5,41 52.5,41 52.5,37.5 56,37.5 56,34.5 52.5,34.5 	"/>
	<rect x="8" y="34.5" width="10" height="3"/>
</g>
</svg>
