<?xml version="1.0" encoding="utf-8"?>
<!-- Generator: Adobe Illustrator 21.0.0, SVG Export Plug-In . SVG Version: 6.00 Build 0)  -->
<svg version="1.1" id="Layer_1" xmlns="http://www.w3.org/2000/svg" xmlns:xlink="http://www.w3.org/1999/xlink" x="0px" y="0px"
	 viewBox="0 0 64 64" style="enable-background:new 0 0 64 64;" xml:space="preserve">
<path d="M46,37.7V26.5c0-5.6-3.3-10.4-8-12.6V5.5H26v8.4c-4.7,2.3-8,7.1-8,12.6v11.2l-6,6v6.8h12c0,4.4,3.6,8,8,8s8-3.6,8-8h12v-6.8
	L46,37.7z M42,34H22v-3h20V34z M30,12.5v-3h4v3H30z M32,16.5c5.5,0,10,4.5,10,10V28H22v-1.5C22,21,26.5,16.5,32,16.5z M32,54.5
	c-2.2,0-4-1.8-4-4h8C36,52.7,34.2,54.5,32,54.5z M48,46.5h-8h-4h-8h-4h-8v-1.2l6-6V37h20v2.3l6,6V46.5z"/>
</svg>
