<?xml version="1.0" encoding="utf-8"?>
<!-- Generator: Adobe Illustrator 21.0.0, SVG Export Plug-In . SVG Version: 6.00 Build 0)  -->
<svg version="1.1" id="Layer_1" xmlns="http://www.w3.org/2000/svg" xmlns:xlink="http://www.w3.org/1999/xlink" x="0px" y="0px"
	 viewBox="0 0 64 64" style="enable-background:new 0 0 64 64;" xml:space="preserve">
<g>
	<path d="M38.6,11l6.8,8.5l1.2,1.5h1.9H60v30H4V21h11.5h1.9l1.2-1.5l6.8-8.5H38.6 M40.5,7h-17l-8,10H0v38h64V17H48.5L40.5,7L40.5,7z
		"/>
	<path d="M32,31c2.8,0,5,2.2,5,5s-2.2,5-5,5s-5-2.2-5-5S29.2,31,32,31 M32,28c-4.4,0-8,3.6-8,8s3.6,8,8,8s8-3.6,8-8S36.4,28,32,28
		L32,28z"/>
</g>
<rect x="4" y="12.5" width="6" height="3"/>
<circle cx="43" cy="27" r="3"/>
</svg>
