<?xml version="1.0" encoding="utf-8"?>
<!-- Generator: Adobe Illustrator 21.0.0, SVG Export Plug-In . SVG Version: 6.00 Build 0)  -->
<svg version="1.1" id="Layer_1" xmlns="http://www.w3.org/2000/svg" xmlns:xlink="http://www.w3.org/1999/xlink" x="0px" y="0px"
	 viewBox="0 0 64 64" style="enable-background:new 0 0 64 64;" xml:space="preserve">
<g>
	<path d="M40,65H24v-9.6l-3.5-1.2L14,60.8L3.2,50l6.5-6.5L8.6,40H-1V24h9.6l1.2-3.5L3.2,14L14,3.2l6.5,6.5L24,8.6V-1h16v9.6l3.5,1.2
		L50,3.2L60.8,14l-6.5,6.5l1.2,3.5H65v16h-9.6l-1.2,3.5l6.5,6.5L50,60.8l-6.5-6.5L40,55.4V65z M28,61h8v-8.4l8.5-2.8l5.5,5.5
		l5.2-5.2l-5.5-5.5l2.8-8.5H61v-8h-8.4l-2.8-8.5l5.5-5.5L50,8.8l-5.5,5.5L36,11.4V3h-8v8.4l-8.5,2.8L14,8.8L8.8,14l5.5,5.5L11.4,28
		H3v8h8.4l2.8,8.5L8.8,50l5.2,5.2l5.5-5.5l8.5,2.8V61z"/>
	<path d="M32,40c-4.4,0-8-3.6-8-8s3.6-8,8-8s8,3.6,8,8S36.4,40,32,40z M32,28c-2.2,0-4,1.8-4,4c0,2.2,1.8,4,4,4c2.2,0,4-1.8,4-4
		C36,29.8,34.2,28,32,28z"/>
</g>
</svg>
