<?xml version="1.0" encoding="utf-8"?>
<!-- Generator: Adobe Illustrator 21.0.0, SVG Export Plug-In . SVG Version: 6.00 Build 0)  -->
<svg version="1.1" id="Layer_1" xmlns="http://www.w3.org/2000/svg" xmlns:xlink="http://www.w3.org/1999/xlink" x="0px" y="0px"
	 viewBox="0 0 64 64" style="enable-background:new 0 0 64 64;" xml:space="preserve">
<g>
	<path d="M18,28v-8c0-7.7,6.3-14,14-14s14,6.3,14,14v2h4v-2c0-9.9-8.1-18-18-18c-9.9,0-18,8.1-18,18v8H8v34h48V28H18z M52,58H12V32
		h40V58z"/>
	<path d="M30,48.6V53h4v-4.4c2.3-0.8,4-3,4-5.6c0-3.3-2.7-6-6-6s-6,2.7-6,6C26,45.6,27.7,47.8,30,48.6z M32,41c1.1,0,2,0.9,2,2
		s-0.9,2-2,2c-1.1,0-2-0.9-2-2S30.9,41,32,41z"/>
</g>
</svg>
