<?xml version="1.0" encoding="utf-8"?>
<!-- Generator: Adobe Illustrator 21.0.0, SVG Export Plug-In . SVG Version: 6.00 Build 0)  -->
<svg version="1.1" id="Layer_1" xmlns="http://www.w3.org/2000/svg" xmlns:xlink="http://www.w3.org/1999/xlink" x="0px" y="0px"
	 viewBox="0 0 64 64" style="enable-background:new 0 0 64 64;" xml:space="preserve">
<g id="Layer_2">
	<g id="Layer_1_2_">
		<circle cx="35" cy="40" r="2"/>
		<path d="M49,42h-6c-1.1,0-2-0.9-2-2l0,0c0-1.1,0.9-2,2-2h6c1.1,0,2,0.9,2,2l0,0C51,41.1,50.1,42,49,42z"/>
	</g>
	<g id="Layer_3_1_">
		<g>
			<path d="M55,12.1v-3c3.3,0,6,2.7,6,6h-3C57.9,13.4,56.6,12.1,55,12.1z"/>
			<path d="M55,6V3c6.6,0,12,5.4,12,12h-3C64,10.1,59.9,6.1,55,6z"/>
			<path d="M55,0v-3c9.9,0,18,8.1,18,18.1h-3C70,6.8,63.3,0.1,55,0z"/>
		</g>
	</g>
</g>
<polygon points="52,15 32,15 32,19 49.2,19 53.7,31 32,31 32,35 54,35 54,45 32,45 32,49 58,49 58,35 58,31 "/>
<path d="M24,7H4c-2.2,0-4,1.8-4,4v42c0,2.2,1.8,4,4,4h20c2.2,0,4-1.8,4-4V11C28,8.8,26.2,7,24,7z M11,10h6c0.6,0,1,0.4,1,1
	s-0.4,1-1,1h-6c-0.6,0-1-0.4-1-1S10.4,10,11,10z M14,55c-1.1,0-2-0.9-2-2s0.9-2,2-2s2,0.9,2,2S15.1,55,14,55z M25.5,49h-23V15h23V49
	z"/>
<g>
	<polygon points="12.7,29.7 11.3,28.3 9,30.6 6.7,28.3 5.3,29.7 6.6,31 5,31 5,33 6.6,33 5.3,34.3 6.7,35.7 9,33.4 11.3,35.7 
		12.7,34.3 11.4,33 13,33 13,31 11.4,31 	"/>
	<polygon points="23,31 21.4,31 22.7,29.7 21.3,28.3 19,30.6 16.7,28.3 15.3,29.7 16.6,31 15,31 15,33 16.6,33 15.3,34.3 16.7,35.7 
		19,33.4 21.3,35.7 22.7,34.3 21.4,33 23,33 	"/>
</g>
</svg>
