<?xml version="1.0" encoding="utf-8"?>
<!-- Generator: Adobe Illustrator 21.0.0, SVG Export Plug-In . SVG Version: 6.00 Build 0)  -->
<svg version="1.1" id="Layer_1" xmlns="http://www.w3.org/2000/svg" xmlns:xlink="http://www.w3.org/1999/xlink" x="0px" y="0px"
	 viewBox="0 0 64 64" style="enable-background:new 0 0 64 64;" xml:space="preserve">
<g>
	<path d="M48.5,8V4.5h-9v4h-15v-4h-9V8H5v50h54V8H48.5z M42.5,7.5h3v5h-3V7.5z M18.5,7.5h3v5h-3V7.5z M15.5,12v3.5h9v-4h15v4h9V12
		H55v6.5H9V12H15.5z M9,54V21.5h46V54H9z"/>
	<path d="M12.5,36.5h11v-11h-11V36.5z M15.5,28.5h5v5h-5V28.5z"/>
	<path d="M12.5,50.5h11v-11h-11V50.5z M15.5,42.5h5v5h-5V42.5z"/>
	<path d="M40.5,36.5h11v-11h-11V36.5z M43.5,28.5h5v5h-5V28.5z"/>
	<path d="M40.5,50.5h11v-11h-11V50.5z M43.5,42.5h5v5h-5V42.5z"/>
	<path d="M26.5,36.5h11v-11h-11V36.5z M29.5,28.5h5v5h-5V28.5z"/>
	<path d="M26.5,50.5h11v-11h-11V50.5z M29.5,42.5h5v5h-5V42.5z"/>
</g>
</svg>
