<?xml version="1.0" encoding="utf-8"?>
<!-- Generator: Adobe Illustrator 21.0.0, SVG Export Plug-In . SVG Version: 6.00 Build 0)  -->
<svg version="1.1" id="Layer_1" xmlns="http://www.w3.org/2000/svg" xmlns:xlink="http://www.w3.org/1999/xlink" x="0px" y="0px"
	 viewBox="0 0 64 64" style="enable-background:new 0 0 64 64;" xml:space="preserve">
<g>
	<g>
		<path d="M33.7,17.6c-1.2-2.4-3.8-4.1-6.7-4.1c-4.1,0-7.5,3.4-7.5,7.5s3.4,7.5,7.5,7.5c2.9,0,5.4-1.7,6.7-4.1
			c1,1.3,2.6,2.1,4.3,2.1c3,0,5.5-2.5,5.5-5.5S41,15.5,38,15.5C36.2,15.5,34.7,16.3,33.7,17.6z M27,25.5c-2.5,0-4.5-2-4.5-4.5
			s2-4.5,4.5-4.5s4.5,2,4.5,4.5S29.5,25.5,27,25.5z M40.5,21c0,1.4-1.1,2.5-2.5,2.5s-2.5-1.1-2.5-2.5s1.1-2.5,2.5-2.5
			S40.5,19.6,40.5,21z"/>
		<polygon points="39,43.5 40.8,41.8 42.5,43.5 44,42 42.3,40.3 44,38.5 42.5,37 40.8,38.8 39,37 37.5,38.5 39.3,40.3 37.5,42 		"/>
		<path d="M31.5,36H18V13.8c-1.5,1.1-2.8,2.5-4,3.9V36h-2v6h2v4.3c3.2,4.1,7.8,7,13,8.2V42h4.5v6h17c0.9-0.9,1.7-1.9,2.5-3H34.5V34
			h20.4c0.1-0.7,0.1-1.3,0.1-2c0-0.3,0-0.7,0-1H31.5V36z"/>
		<path d="M54.2,38.2L53,37l-1.8,1.8L49.5,37L48,38.5l1.8,1.8L48,42l1.5,1.5l1.8-1.8l1,1c0.4-0.7,0.7-1.3,1-2l-0.5-0.5l1.1-1.1
			C54,38.8,54.1,38.5,54.2,38.2z"/>
		<path d="M32,5c14.9,0,27,12.1,27,27S46.9,59,32,59S5,46.9,5,32S17.1,5,32,5 M32,2C15.4,2,2,15.4,2,32s13.4,30,30,30s30-13.4,30-30
			S48.6,2,32,2L32,2z"/>
	</g>
</g>
</svg>
