<?xml version="1.0" encoding="utf-8"?>
<!-- Generator: Adobe Illustrator 21.0.0, SVG Export Plug-In . SVG Version: 6.00 Build 0)  -->
<svg version="1.1" id="Layer_1" xmlns="http://www.w3.org/2000/svg" xmlns:xlink="http://www.w3.org/1999/xlink" x="0px" y="0px"
	 viewBox="0 0 64 64" style="enable-background:new 0 0 64 64;" xml:space="preserve">
<g>
	<circle cx="38" cy="40" r="2"/>
	<path d="M52,42c1.1,0,2-0.9,2-2s-0.9-2-2-2h-6c-1.1,0-2,0.9-2,2s0.9,2,2,2H52z"/>
	<circle cx="30" cy="40" r="2"/>
	<path d="M58,9.1v3c1.6,0,2.9,1.3,3,3h3C64,11.8,61.3,9.1,58,9.1z"/>
	<path d="M58,3v3c4.9,0.1,9,4.1,9,9h3C70,8.4,64.6,3,58,3z"/>
	<path d="M58-3v3c8.3,0.1,15,6.8,15,15.1h3C76,5.1,67.9-3,58-3z"/>
	<path d="M33,15v4h19.2l4.5,12H31.1c-0.8,1.5-1.8,2.8-3,4H57v10H25v-7.7c-1.2,0.7-2.6,1.3-4,1.6v10h40V35v-4l-6-16H33z"/>
	<path d="M25,56.5c-2,0-3.6,1.2-4.2,3H9.5c-2.8,0-5-2.2-5-5s2.2-5,5-5c4.4,0,8-3.6,8-8v-6c6.4-0.3,11.5-5.5,11.5-12v-18h-3.5H25
		h-1.5V3h-4v8h4V8.5H25v1v2.8v11.2c0,4.4-3.6,8-8,8h-2c-4.4,0-8-3.6-8-8V12.3V9.5v-1h1.5V11h4V3h-4v2.5H7H6.5H3v18
		c0,6.4,5.1,11.7,11.5,12v6c0,2.8-2.2,5-5,5c-4.4,0-8,3.6-8,8s3.6,8,8,8h11.3c0.6,1.8,2.3,3,4.2,3c2.5,0,4.5-2,4.5-4.5
		S27.5,56.5,25,56.5z M25,62.5c-0.8,0-1.5-0.7-1.5-1.5s0.7-1.5,1.5-1.5s1.5,0.7,1.5,1.5S25.8,62.5,25,62.5z"/>
</g>
</svg>
