<?xml version="1.0" encoding="utf-8"?>
<!-- Generator: Adobe Illustrator 21.0.0, SVG Export Plug-In . SVG Version: 6.00 Build 0)  -->
<svg version="1.1" id="Layer_1" xmlns="http://www.w3.org/2000/svg" xmlns:xlink="http://www.w3.org/1999/xlink" x="0px" y="0px"
	 viewBox="0 0 64 64" style="enable-background:new 0 0 64 64;" xml:space="preserve">
<g>
	<path d="M33.5,42h-3v-1.7c-0.6,0.3-1,1-1,1.7v2h5v-2c0-0.7-0.4-1.4-1-1.7V42z"/>
	<path d="M30.5,35.7V34h3v1.7c0.6-0.3,1-1,1-1.7v-2h-5v2C29.5,34.7,29.9,35.4,30.5,35.7z"/>
	<path d="M32,30c0.5,0,1-0.4,1-1v-1c0-0.5-0.5-1-1-1s-1,0.5-1,1v1C31,29.6,31.5,30,32,30z"/>
	<path d="M32,53l14.8-14.8c8.3-8.3,8.3-21.5,0-29.7c-8.2-8.2-21.5-8.2-29.7,0c-8.2,8.2-8.2,21.5,0,29.7L32,53z M44.5,17
		c0,1.4-1.1,2.5-2.5,2.5s-2.5-1.1-2.5-2.5s1.1-2.5,2.5-2.5S44.5,15.6,44.5,17z M32,5c5.3,0,9.8,3.5,11.4,8.3C43,13.1,42.5,13,42,13
		c-1,0-1.9,0.4-2.6,1c-1.2-2.9-4.1-5-7.4-5c-4.4,0-8,3.6-8,8s3.6,8,8,8c3.3,0,6.2-2.1,7.4-5c0.7,0.6,1.6,1,2.6,1
		c0.5,0,0.9-0.1,1.4-0.3c-0.8,2.5-2.4,4.6-4.4,6V32h-2.5v2c0,1.9-1.3,3.4-3,3.9v0.3c1.7,0.4,3,2,3,3.9v4h-9v-4c0-1.9,1.3-3.4,3-3.9
		v-0.3c-1.7-0.4-3-2-3-3.9v-2H25v-5.3c-3-2.2-5-5.7-5-9.7C20,10.4,25.4,5,32,5z"/>
	<polygon points="52.2,41 48,41 48,45 49.8,45 59.6,62 4.4,62 14.2,45 17,45 17,41 11.8,41 -2.4,66 66.4,66 	"/>
</g>
</svg>
