<?xml version="1.0" encoding="utf-8"?>
<!-- Generator: Adobe Illustrator 21.0.0, SVG Export Plug-In . SVG Version: 6.00 Build 0)  -->
<svg version="1.1" id="Layer_1" xmlns="http://www.w3.org/2000/svg" xmlns:xlink="http://www.w3.org/1999/xlink" x="0px" y="0px"
	 viewBox="0 0 64 64" style="enable-background:new 0 0 64 64;" xml:space="preserve">
<g>
	<polygon points="18,10 14,10 14,16 9,16 9,20 14,20 14,54 18,54 18,20 23,20 23,16 18,16 	"/>
	<polygon points="34,10 30,10 30,30 25,30 25,34 30,34 30,54 34,54 34,34 39,34 39,30 34,30 	"/>
	<polygon points="55,44 50,44 50,10 46,10 46,44 41,44 41,48 46,48 46,54 50,54 50,48 55,48 	"/>
</g>
</svg>
