<?xml version="1.0" encoding="utf-8"?>
<!-- Generator: Adobe Illustrator 21.0.0, SVG Export Plug-In . SVG Version: 6.00 Build 0)  -->
<svg version="1.1" id="Layer_1" xmlns="http://www.w3.org/2000/svg" xmlns:xlink="http://www.w3.org/1999/xlink" x="0px" y="0px"
	 viewBox="0 0 64 64" style="enable-background:new 0 0 64 64;" xml:space="preserve">
<style type="text/css">
	.st0{fill:none;stroke:#000000;stroke-width:4.0645;stroke-miterlimit:10;}
</style>
<g id="Layer_3">
	<g>
		<g>
			<path d="M53.2,37l-8.9,23H19.8l-8.9-23H53.2 M59,33H5l12,31h30L59,33L59,33z"/>
		</g>
		<line class="st0" x1="42" y1="18" x2="49" y2="35"/>
		<line class="st0" x1="22" y1="18" x2="15" y2="35"/>
	</g>
	<g>
		<g>
			<path d="M32,6.1l0.2,0.7l0.5,1.3h1.4h0.1L34,8.3l-1.1,0.9l0.4,1.3l0.1,0.3l-0.2-0.2L32,9.7l-1.2,0.9l-0.2,0.2l0.1-0.3l0.4-1.3
				L30,8.3l-0.2-0.2h0.1h1.4l0.5-1.3L32,6.1 M32,0l-2.1,6.1H24l4.8,3.7l-2.1,6.4l5.3-4l5.3,4l-2.1-6.4L40,6.1h-5.9L32,0L32,0z"/>
		</g>
	</g>
	<g>
		<path d="M13,8l-1.3,3.8H8l3,2.3l-1.3,4l3.3-2.5l3.3,2.5l-1.3-4l3-2.3h-3.7L13,8z"/>
	</g>
	<g>
		<path d="M51,8l-1.3,3.8H46l3,2.3l-1.3,4l3.3-2.5l3.3,2.5l-1.3-4l3-2.3h-3.7L51,8z"/>
	</g>
	<g>
		<path d="M58,0l-1.1,3H54l2.4,1.9l-1.1,3.2l2.7-2l2.7,2l-1.1-3.2L62,3h-2.9L58,0z"/>
	</g>
	<g>
		<path d="M59,20l-1.1,3H55l2.4,1.9l-1.1,3.2l2.7-2l2.7,2l-1.1-3.2L63,23h-2.9L59,20z"/>
	</g>
	<g>
		<path d="M6,0L4.9,3H2l2.4,1.9L3.3,8.1l2.7-2l2.7,2L7.6,4.9L10,3H7.1L6,0z"/>
	</g>
	<g>
		<path d="M5,20l-1.1,3H1l2.4,1.9l-1.1,3.2l2.7-2l2.7,2l-1.1-3.2L9,23H6.1L5,20z"/>
	</g>
</g>
<g>
	<circle cx="27" cy="48.5" r="2"/>
	<path d="M29.8,51.3c1.6-1.6,1.6-4.1,0-5.7l0.9-0.9c2.1,2.1,2.1,5.5,0,7.6L29.8,51.3z"/>
	<path d="M32.2,53.7c2.9-2.9,2.9-7.5,0-10.4l0.9-0.9c3.4,3.4,3.4,8.9,0,12.3L32.2,53.7z"/>
	<path d="M35.5,57l-0.9-0.9c4.2-4.2,4.2-10.9,0-15.1l0.9-0.9C40.2,44.7,40.2,52.3,35.5,57z"/>
</g>
</svg>
