<?xml version="1.0" encoding="utf-8"?>
<!-- Generator: Adobe Illustrator 21.0.0, SVG Export Plug-In . SVG Version: 6.00 Build 0)  -->
<svg version="1.1" id="Layer_1" xmlns="http://www.w3.org/2000/svg" xmlns:xlink="http://www.w3.org/1999/xlink" x="0px" y="0px"
	 viewBox="0 0 64 64" style="enable-background:new 0 0 64 64;" xml:space="preserve">
<g>
	<path d="M32,0v4c15.4,0,28,12.6,28,28S47.4,60,32,60S4,47.4,4,32V19.8l4.6,4.6l2.8-2.8L2,12.2l-9.4,9.4l2.8,2.8L0,19.8V32
		c0,17.6,14.4,32,32,32c17.6,0,32-14.4,32-32C64,14.4,49.6,0,32,0z"/>
	<g>
		<g>
			<g>
				<path d="M47,26.5v21H17v-21 M51,22.5H13v29h38V22.5z"/>
			</g>
			<g>
				<g>
					<g>
						<rect x="21.5" y="30.5" width="5" height="5"/>
					</g>
					<g>
						<rect x="21.5" y="38.5" width="5" height="5"/>
					</g>
					<g>
						<rect x="37.5" y="30.5" width="5" height="5"/>
					</g>
					<g>
						<rect x="37.5" y="38.5" width="5" height="5"/>
					</g>
					<g>
						<rect x="29.5" y="30.5" width="5" height="5"/>
					</g>
					<g>
						<rect x="29.5" y="38.5" width="5" height="5"/>
					</g>
				</g>
			</g>
			<g>
				<g>
					<rect x="27.5" y="12.5" width="9" height="4"/>
					<polygon points="41.5,12.5 41.5,16.5 47,16.5 47,22.5 17,22.5 17,16.5 22.5,16.5 22.5,12.5 13,12.5 13,26.5 51,26.5 51,12.5 
											"/>
				</g>
				<path d="M26,10.5v6h-2v-6 M29,7.5h-8v12h8V7.5z"/>
				<path d="M40,10.5v6h-2v-6 M43,7.5h-8v12h8V7.5z"/>
			</g>
		</g>
	</g>
</g>
</svg>
