<?xml version="1.0" encoding="utf-8"?>
<!-- Generator: Adobe Illustrator 21.0.0, SVG Export Plug-In . SVG Version: 6.00 Build 0)  -->
<svg version="1.1" id="Layer_1" xmlns="http://www.w3.org/2000/svg" xmlns:xlink="http://www.w3.org/1999/xlink" x="0px" y="0px"
	 viewBox="0 0 64 64" style="enable-background:new 0 0 64 64;" xml:space="preserve">
<path d="M46,0H18c-2.2,0-4,1.8-4,4v56c0,2.2,1.8,4,4,4h28c2.2,0,4-1.8,4-4V4C50,1.8,48.2,0,46,0z M28,4h8c0.6,0,1,0.4,1,1
	s-0.4,1-1,1h-8c-0.6,0-1-0.4-1-1S27.4,4,28,4z M32,62c-1.7,0-3-1.3-3-3s1.3-3,3-3s3,1.3,3,3S33.7,62,32,62z M47,54H17V10h30V54z"/>
</svg>
