<?xml version="1.0" encoding="utf-8"?>
<!-- Generator: Adobe Illustrator 21.0.0, SVG Export Plug-In . SVG Version: 6.00 Build 0)  -->
<svg version="1.1" id="Layer_1" xmlns="http://www.w3.org/2000/svg" xmlns:xlink="http://www.w3.org/1999/xlink" x="0px" y="0px"
	 viewBox="0 0 64 64" style="enable-background:new 0 0 64 64;" xml:space="preserve">
<g>
	<g>
		<path d="M11.1,22.1c0-1.6,1.3-3,2.9-3v-3c-3.3,0-6,2.7-6,6H11.1z"/>
		<path d="M14,10C7.4,10,2,15.4,2,22h3c0-5,4-9,9-9V10z"/>
		<path d="M14,7V4C4.1,4-4,12.1-4,22.1h3C-1,13.8,5.7,7.1,14,7z"/>
	</g>
	<rect x="27" y="37" width="6" height="2"/>
	<path d="M30,22c2.1,0,4.1,0.4,6,1.2v-4.3c-1.9-0.6-3.9-0.9-6-0.9c-8.6,0-16,5.5-18.8,13.2C5.8,33.4,2,38.8,2,45v5h7.3
		c0.2,0.7,0.5,1.4,1,2H-4v3h20c3.2,0,5.8-2.1,6.7-5H36v-4H22.7c-0.9-2.9-3.5-5-6.7-5s-5.8,2.1-6.7,5H6v-1c0-6.1,4.9-11,11-11h19v-4
		h-9v-7.7C28,22.1,29,22,30,22z M16,46c1.1,0,2,0.9,2,2s-0.9,2-2,2s-2-0.9-2-2S14.9,46,16,46z M24,30h-7c-0.3,0-0.6,0-0.8,0
		c1.8-3.1,4.5-5.5,7.8-6.9V30z"/>
	<path d="M64,10H44c-2.2,0-4,1.8-4,4v42c0,2.2,1.8,4,4,4h20c2.2,0,4-1.8,4-4V14C68,11.8,66.2,10,64,10z M51,13h6c0.6,0,1,0.4,1,1
		s-0.4,1-1,1h-6c-0.6,0-1-0.4-1-1S50.4,13,51,13z M54,58c-1.1,0-2-0.9-2-2s0.9-2,2-2s2,0.9,2,2S55.1,58,54,58z M65.5,52h-23V18h23
		V52z"/>
	<path d="M55.5,39.2v-8.9l-3.9-3.9H56v-3h-9.5V33h3v-4.4l3,3v7.6c-2,0.6-3.5,2.5-3.5,4.8c0,2.8,2.2,5,5,5s5-2.2,5-5
		C59,41.7,57.5,39.9,55.5,39.2z M54,46c-1.1,0-2-0.9-2-2s0.9-2,2-2s2,0.9,2,2S55.1,46,54,46z"/>
</g>
</svg>
