<?xml version="1.0" encoding="utf-8"?>
<!-- Generator: Adobe Illustrator 21.0.0, SVG Export Plug-In . SVG Version: 6.00 Build 0)  -->
<svg version="1.1" id="Layer_1" xmlns="http://www.w3.org/2000/svg" xmlns:xlink="http://www.w3.org/1999/xlink" x="0px" y="0px"
	 viewBox="0 0 64 64" style="enable-background:new 0 0 64 64;" xml:space="preserve">
<g>
	<polygon points="23.4,19.6 20.6,22.4 34,35.8 47.4,22.4 44.6,19.6 36,28.2 36,14.2 25.4,3.6 22.6,6.4 32,15.8 32,28.2 	"/>
	<path d="M8,57V30l5,2c0,2.2,1.8,4,4,4c0.8,0,1.5-0.2,2.1-0.6L29.1,43c-0.1,0.3-0.1,0.7-0.1,1c0,2.2,1.8,4,4,4
		c1.3,0,2.5-0.7,3.2-1.6l8.8,2.2C45.3,50.5,47,52,49,52c0.8,0,1.5-0.2,2.1-0.6l4,2.9l1.7-2.4l-4-2.9C53,48.6,53,48.3,53,48
		c0-2.2-1.8-4-4-4c-1.3,0-2.5,0.7-3.2,1.6l-8.8-2.2C36.7,41.5,35,40,33,40c-0.8,0-1.5,0.2-2.1,0.6L20.9,33c0.1-0.3,0.1-0.7,0.1-1
		c0-2.2-1.8-4-4-4c-1.1,0-2.2,0.5-2.9,1.2L8,26.8V21H4v36v4h4h52v-4H8z"/>
</g>
</svg>
