<?xml version="1.0" encoding="utf-8"?>
<!-- Generator: Adobe Illustrator 21.0.0, SVG Export Plug-In . SVG Version: 6.00 Build 0)  -->
<svg version="1.1" id="Layer_1" xmlns="http://www.w3.org/2000/svg" xmlns:xlink="http://www.w3.org/1999/xlink" x="0px" y="0px"
	 viewBox="0 0 64 64" style="enable-background:new 0 0 64 64;" xml:space="preserve">
<g id="Layer_1_copy_3">
	<g>
		<path d="M57.4,44.9C59,46.8,60,49.3,60,52v1h-2.3c-0.9-2.9-3.5-5-6.7-5s-5.8,2.1-6.7,5H20.7c-0.9-2.9-3.5-5-6.7-5s-5.8,2.1-6.7,5
			H4v-1c0-6.1,4.9-11,11-11h18.1c-1.3-1.2-2.5-2.6-3.6-4H25v-7.7c0.1,0,0.3,0,0.4-0.1c-0.4-1.3-0.8-2.6-1-3.9
			c-7,1.3-12.8,6.2-15.2,12.8C3.8,40.4,0,45.8,0,52v5h7.3c0.2,0.7,0.5,1.4,1,2H-6v3h20c3.2,0,5.8-2.1,6.7-5h23.6
			c0.9,2.9,3.5,5,6.7,5s5.8-2.1,6.7-5H64v-5c0-3.5-1.2-6.7-3.2-9.2C59.7,43.6,58.6,44.3,57.4,44.9z M22,30.2V37h-7
			c-0.3,0-0.6,0-0.8,0C15.9,34,18.7,31.5,22,30.2z M14,57c-1.1,0-2-0.9-2-2s0.9-2,2-2s2,0.9,2,2S15.1,57,14,57z M51,57
			c-1.1,0-2-0.9-2-2s0.9-2,2-2s2,0.9,2,2S52.1,57,51,57z"/>
		<g>
			<path d="M9.1,29.1c0-1.6,1.3-3,2.9-3v-3c-3.3,0-6,2.7-6,6H9.1z"/>
			<path d="M12,17C5.4,17,0,22.4,0,29h3c0-5,4-9,9-9V17z"/>
			<path d="M12,14v-3C2.1,11-6,19.1-6,29.1h3C-3,20.8,3.7,14.1,12,14z"/>
			<rect x="25" y="44" width="6" height="2"/>
		</g>
	</g>
	<g>
		<g>
			<rect x="42.5" y="22.5" width="11" height="7"/>
		</g>
		<g>
			<path d="M59.7,2.2C57.9,2.9,56,3.4,54,3.4c-2.2,0-4.2-0.5-6-1.4c-1.8,0.9-3.8,1.4-6,1.4c-2,0-3.9-0.4-5.7-1.2
				C31.2,6.6,28,13.1,28,20.3c0,11.9,8.7,21.8,20,23.7c11.3-1.9,20-11.8,20-23.7C68,13.1,64.8,6.6,59.7,2.2z M56.5,32.5h-17v-13h3
				V15c0-3,2.5-5.5,5.5-5.5s5.5,2.5,5.5,5.5v1.5h-3V15c0-1.4-1.1-2.5-2.5-2.5s-2.5,1.1-2.5,2.5v4.5h11V32.5z"/>
		</g>
	</g>
</g>
</svg>
