<?xml version="1.0" encoding="utf-8"?>
<!-- Generator: Adobe Illustrator 21.0.0, SVG Export Plug-In . SVG Version: 6.00 Build 0)  -->
<svg version="1.1" id="Layer_1" xmlns="http://www.w3.org/2000/svg" xmlns:xlink="http://www.w3.org/1999/xlink" x="0px" y="0px"
	 viewBox="0 0 64 64" style="enable-background:new 0 0 64 64;" xml:space="preserve">
<g id="Layer_2">
	<g>
		<path d="M61,13v38H3V13H61 M64,10H0v44h64V10L64,10z"/>
	</g>
</g>
<g id="Layer_3">
	<g>
		<g>
			<path d="M22,19c3.3,0,6,2.7,6,6s-2.7,6-6,6s-6-2.7-6-6S18.7,19,22,19 M22,15c-5.5,0-10,4.5-10,10s4.5,10,10,10s10-4.5,10-10
				S27.5,15,22,15L22,15z"/>
		</g>
		<path d="M22,31c-8.8,0-16,7.2-16,16h4c0-6.6,5.4-12,12-12s12,5.4,12,12h4C38,38.2,30.8,31,22,31z"/>
	</g>
</g>
<g id="Layer_4">
	<rect x="37" y="30.5" width="20" height="3"/>
	<rect x="43" y="37.5" width="14" height="3"/>
	<rect x="41" y="23.5" width="16" height="3"/>
</g>
</svg>
