<?xml version="1.0" encoding="utf-8"?>
<!-- Generator: Adobe Illustrator 21.0.0, SVG Export Plug-In . SVG Version: 6.00 Build 0)  -->
<svg version="1.1" id="Layer_1" xmlns="http://www.w3.org/2000/svg" xmlns:xlink="http://www.w3.org/1999/xlink" x="0px" y="0px"
	 viewBox="0 0 64 64" style="enable-background:new 0 0 64 64;" xml:space="preserve">
<g id="Layer_2">
	<g id="Layer_1_2_">
		<g>
			<path d="M43.2,19l4.5,12H16.3l4.5-12H43.2 M46,15H18l-6,16v4h40v-4L46,15L46,15z"/>
		</g>
		<g>
			<path d="M48,35v10H16V35H48 M52,31H12v18h40V31L52,31z"/>
		</g>
		<circle cx="29" cy="40" r="2"/>
		<path d="M43,42h-6c-1.1,0-2-0.9-2-2l0,0c0-1.1,0.9-2,2-2h6c1.1,0,2,0.9,2,2l0,0C45,41.1,44.1,42,43,42z"/>
		<circle cx="21" cy="40" r="2"/>
	</g>
	<g id="Layer_3_1_">
		<g>
			<path d="M49,12.1v-3c3.3,0,6,2.7,6,6h-3C51.9,13.4,50.6,12.1,49,12.1z"/>
			<path d="M49,6V3c6.6,0,12,5.4,12,12h-3C58,10.1,53.9,6.1,49,6z"/>
			<path d="M49,0v-3c9.9,0,18,8.1,18,18.1h-3C64,6.8,57.3,0.1,49,0z"/>
		</g>
	</g>
</g>
</svg>
