<?xml version="1.0" encoding="utf-8"?>
<!-- Generator: Adobe Illustrator 21.0.0, SVG Export Plug-In . SVG Version: 6.00 Build 0)  -->
<svg version="1.1" id="Layer_1" xmlns="http://www.w3.org/2000/svg" xmlns:xlink="http://www.w3.org/1999/xlink" x="0px" y="0px"
	 viewBox="0 0 64 64" style="enable-background:new 0 0 64 64;" xml:space="preserve">
<path d="M41.8,38.9c4.2-5.5,3.8-13.3-1.3-18.3c-2.8-2.8-6.4-4.1-9.9-4.1c-3.6,0-7.2,1.4-9.9,4.1c-5.5,5.5-5.5,14.3,0,19.8
	c2.7,2.7,6.3,4.1,9.9,4.1c2.9,0,5.9-0.9,8.3-2.8l7.2,7.2l2.8-2.8L41.8,38.9z M37.7,37.5c-1.9,1.9-4.4,2.9-7.1,2.9
	c-2.7,0-5.2-1-7.1-2.9c-3.9-3.9-3.9-10.2,0-14.1c1.9-1.9,4.4-2.9,7.1-2.9c2.7,0,5.2,1,7.1,2.9C41.6,27.3,41.6,33.6,37.7,37.5z"/>
</svg>
