<?xml version="1.0" encoding="utf-8"?>
<!-- Generator: Adobe Illustrator 21.0.0, SVG Export Plug-In . SVG Version: 6.00 Build 0)  -->
<svg version="1.1" id="Layer_1" xmlns="http://www.w3.org/2000/svg" xmlns:xlink="http://www.w3.org/1999/xlink" x="0px" y="0px"
	 viewBox="0 0 64 64" style="enable-background:new 0 0 64 64;" xml:space="preserve">
<g>
	<path d="M32,41.4l9.9-9.9c5.5-5.5,5.5-14.3,0-19.8C39.2,9,35.6,7.6,32,7.6s-7.2,1.4-9.9,4.1c-5.5,5.5-5.5,14.3,0,19.8L32,41.4z
		 M24.9,14.5c1.9-1.9,4.4-2.9,7.1-2.9s5.2,1,7.1,2.9c3.9,3.9,3.9,10.2,0,14.1L32,35.7l-7.1-7.1C21,24.7,21,18.4,24.9,14.5z"/>
	<circle cx="32" cy="21.6" r="4"/>
	<path d="M63,47.4c-0.1,0-0.2,0-0.3,0l-8.6-15c0.2-0.5,0.3-1,0.3-1.5c0-1.9-1.6-3.5-3.5-3.5c-1.2,0-2.2,0.6-2.9,1.5H45v4h3.1
		c0.6,0.8,1.5,1.4,2.5,1.5l8.6,15c-0.1,0.2-0.2,0.3-0.3,0.5H36c-0.7-1.5-2.2-2.5-4-2.5s-3.3,1-4,2.5H5c-0.1-0.2-0.2-0.3-0.3-0.5
		l8.6-15c1.1-0.1,2-0.6,2.5-1.5H19v-4h-3.1c-0.6-0.9-1.7-1.5-2.9-1.5c-1.9,0-3.5,1.6-3.5,3.5c0,0.5,0.1,1,0.3,1.5l-8.6,15
		c-0.1,0-0.2,0-0.3,0c-2.5,0-4.5,2-4.5,4.5c0,2.5,2,4.5,4.5,4.5c1.8,0,3.3-1,4-2.5h23c0.7,1.5,2.2,2.5,4,2.5s3.3-1,4-2.5h23
		c0.7,1.5,2.2,2.5,4,2.5c2.5,0,4.5-2,4.5-4.5C67.5,49.4,65.5,47.4,63,47.4z"/>
</g>
</svg>
