<?xml version="1.0" encoding="utf-8"?>
<!-- Generator: Adobe Illustrator 21.0.0, SVG Export Plug-In . SVG Version: 6.00 Build 0)  -->
<svg version="1.1" id="Layer_1" xmlns="http://www.w3.org/2000/svg" xmlns:xlink="http://www.w3.org/1999/xlink" x="0px" y="0px"
	 viewBox="0 0 64 64" style="enable-background:new 0 0 64 64;" xml:space="preserve">
<g>
	<path d="M58.4,44.9C60,46.8,61,49.3,61,52v1h-2.3c-0.9-2.9-3.5-5-6.7-5s-5.8,2.1-6.7,5H21.7c-0.9-2.9-3.5-5-6.7-5s-5.8,2.1-6.7,5H5
		v-1c0-6.1,4.9-11,11-11h18.1c-1.3-1.2-2.5-2.6-3.6-4H26v-7.7c0.1,0,0.3,0,0.4-0.1c-0.4-1.3-0.8-2.6-1-3.9
		c-7,1.3-12.8,6.2-15.2,12.8C4.8,40.4,1,45.8,1,52v5h7.3c0.2,0.7,0.5,1.4,1,2H-5v3h20c3.2,0,5.8-2.1,6.7-5h23.6c0.9,2.9,3.5,5,6.7,5
		s5.8-2.1,6.7-5H65v-5c0-3.5-1.2-6.7-3.2-9.2C60.7,43.6,59.6,44.3,58.4,44.9z M23,30.2V37h-7c-0.3,0-0.6,0-0.8,0
		C16.9,34,19.7,31.5,23,30.2z M15,57c-1.1,0-2-0.9-2-2s0.9-2,2-2s2,0.9,2,2S16.1,57,15,57z M52,57c-1.1,0-2-0.9-2-2s0.9-2,2-2
		s2,0.9,2,2S53.1,57,52,57z"/>
	<path d="M10.1,29.1c0-1.6,1.3-3,2.9-3v-3c-3.3,0-6,2.7-6,6H10.1z"/>
	<path d="M13,17C6.4,17,1,22.4,1,29h3c0-5,4-9,9-9V17z"/>
	<path d="M13,14v-3C3.1,11-5,19.1-5,29.1h3C-2,20.8,4.7,14.1,13,14z"/>
	<rect x="26" y="44" width="6" height="2"/>
	<path d="M58,19H47v-4c0-1.1,0.9-2,2-2s2,0.9,2,2v1h4v-1c0-3.3-2.7-6-6-6s-6,2.7-6,6v4h-3v14h18V19z M54,29H44v-6h10V29z"/>
	<path d="M49,44c11.3-1.9,20-11.8,20-23.7c0-7.3-3.2-13.8-8.3-18.2C58.9,2.9,57,3.4,55,3.4c-2.2,0-4.2-0.5-6-1.4
		c-1.8,0.9-3.8,1.4-6,1.4c-2,0-3.9-0.4-5.7-1.2C32.2,6.6,29,13.1,29,20.3C29,32.2,37.7,42.1,49,44z M38.3,6.7
		c1.5,0.4,3.1,0.6,4.7,0.6c2.1,0.1,4.1-0.3,6-1c1.9,0.7,3.9,1,6,1c1.6,0,3.1-0.2,4.7-0.6c3.4,3.7,5.3,8.5,5.3,13.6
		c0,9.6-6.7,17.7-16,19.6c-9.3-1.9-16-10-16-19.6C33,15.2,34.9,10.4,38.3,6.7z"/>
</g>
</svg>
