<?xml version="1.0" encoding="utf-8"?>
<!-- Generator: Adobe Illustrator 21.0.0, SVG Export Plug-In . SVG Version: 6.00 Build 0)  -->
<svg version="1.1" id="Layer_1_copy" xmlns="http://www.w3.org/2000/svg" xmlns:xlink="http://www.w3.org/1999/xlink" x="0px"
	 y="0px" viewBox="0 0 64 64" style="enable-background:new 0 0 64 64;" xml:space="preserve">
<g>
	<g>
		<path d="M64,47.5c0-8.3-6.7-15-15-15h-2.7c-3.1-7.1-10.1-12-18.3-12c-8.6,0-16,5.5-18.8,13.2C3.8,35.9,0,41.3,0,47.5v5h7.3
			c0.2,0.7,0.5,1.4,1,2H-6v3h20c3.2,0,5.8-2.1,6.7-5h23.6c0.9,2.9,3.5,5,6.7,5s5.8-2.1,6.7-5H64V47.5z M41.8,32.5H25v-7.7
			c1-0.2,2-0.3,3-0.3C33.9,24.5,39.1,27.7,41.8,32.5z M22,25.7v6.8h-7c-0.3,0-0.6,0-0.8,0C15.9,29.5,18.7,27,22,25.7z M14,52.5
			c-1.1,0-2-0.9-2-2s0.9-2,2-2s2,0.9,2,2S15.1,52.5,14,52.5z M51,52.5c-1.1,0-2-0.9-2-2s0.9-2,2-2s2,0.9,2,2S52.1,52.5,51,52.5z
			 M60,48.5h-2.3c-0.9-2.9-3.5-5-6.7-5s-5.8,2.1-6.7,5H20.7c-0.9-2.9-3.5-5-6.7-5s-5.8,2.1-6.7,5H4v-1c0-6.1,4.9-11,11-11h34
			c6.1,0,11,4.9,11,11V48.5z"/>
		<rect x="25" y="39.5" width="6" height="2"/>
	</g>
	<g>
		<path d="M12,21.6v-3c-3.3,0-6,2.7-6,6h3C9.1,22.9,10.4,21.6,12,21.6z"/>
		<path d="M12,15.5v-3c-6.6,0-12,5.4-12,12h3C3,19.6,7.1,15.6,12,15.5z"/>
		<path d="M12,9.5v-3c-9.9,0-18,8.1-18,18.1h3C-3,16.3,3.7,9.6,12,9.5z"/>
	</g>
</g>
</svg>
