<?xml version="1.0" standalone="no"?>
<!DOCTYPE svg PUBLIC "-//W3C//DTD SVG 1.1//EN" "http://www.w3.org/Graphics/SVG/1.1/DTD/svg11.dtd" >
<svg xmlns="http://www.w3.org/2000/svg">
<metadata>Generated by IcoMoon</metadata>
<defs>
<font id="Tracker-Icons" horiz-adv-x="1024">
<font-face units-per-em="1024" ascent="960" descent="-64" />
<missing-glyph horiz-adv-x="1024" />
<glyph unicode="&#x20;" horiz-adv-x="512" d="" />
<glyph unicode="&#xe900;" glyph-name="wheel-picker" d="M880 288h-736v320h736v-320zM192 336h640v224h-640v-224zM288 480h448v-64h-448v64zM416 736h384v-64h-384v64zM416 224h384v-64h-384v64zM608 864h192v-64h-192v64zM608 96h192v-64h-192v64z" />
<glyph unicode="&#xe901;" glyph-name="vehicle" d="M1024 200c0 132.8-107.2 240-240 240h-43.2c-49.6 113.6-161.6 192-292.8 192-137.6 0-256-88-300.8-211.2-86.4-35.2-147.2-121.6-147.2-220.8v-80h116.8c3.2-11.2 8-22.4 16-32h-228.8v-48h320c51.2 0 92.8 33.6 107.2 80h377.6c14.4-46.4 56-80 107.2-80s92.8 33.6 107.2 80h100.8v80zM668.8 440h-268.8v123.2c16 3.2 32 4.8 48 4.8 94.4 0 177.6-51.2 220.8-128zM352 548.8v-108.8h-112c-4.8 0-9.6 0-12.8 0 27.2 48 72 88 124.8 108.8zM224 120c-17.6 0-32 14.4-32 32s14.4 32 32 32 32-14.4 32-32-14.4-32-32-32zM816 120c-17.6 0-32 14.4-32 32s14.4 32 32 32 32-14.4 32-32-14.4-32-32-32zM960 184h-36.8c-14.4 46.4-56 80-107.2 80s-92.8-33.6-107.2-80h-377.6c-14.4 46.4-56 80-107.2 80s-92.8-33.6-107.2-80h-52.8v16c0 97.6 78.4 176 176 176h544c97.6 0 176-78.4 176-176v-16zM400 328h96v-32h-96v32zM192 614.4v48c-52.8 0-96-43.2-96-96h48c1.6 27.2 22.4 48 48 48zM192 712v48c-105.6 0-192-86.4-192-192h48c0 78.4 65.6 142.4 144 144zM192 808v48c-158.4 0-288-129.6-288-289.6h48c0 132.8 107.2 240 240 241.6z" />
<glyph unicode="&#xe902;" glyph-name="tracker" d="M384 448c0-70.692-57.308-128-128-128s-128 57.308-128 128c0 70.692 57.308 128 128 128s128-57.308 128-128zM464 448c0-78.4-43.2-145.6-105.6-180.8l52.8-41.6c70.4 49.6 116.8 131.2 116.8 224s-46.4 174.4-116.8 224l-52.8-41.6c62.4-38.4 105.6-105.6 105.6-184zM608 448c0-110.4-51.2-209.6-131.2-275.2l51.2-40c88 76.8 144 188.8 144 315.2s-56 238.4-144 315.2l-51.2-40c80-65.6 131.2-164.8 131.2-275.2zM752 448c0-144-62.4-275.2-161.6-364.8l38.4-30.4c105.6 99.2 171.2 240 171.2 395.2s-65.6 296-171.2 395.2l-38.4-30.4c99.2-89.6 161.6-220.8 161.6-364.8zM880 448c0-174.4-72-331.2-187.2-444.8l25.6-20.8c120 118.4 193.6 283.2 193.6 465.6s-73.6 347.2-193.6 465.6l-25.6-20.8c115.2-113.6 187.2-270.4 187.2-444.8z" />
<glyph unicode="&#xe903;" glyph-name="tyre" d="M64 0h896v-64h-896v64zM800 896h-576l-16-448 16-448h576l16 448-16 448zM737.6 64h-83.2l48 64-48 64 48 64-48 64 48 64-48 64 48 64-59.2 78.4-38.4-28.8 36.8-49.6-48-64 48-64-48-64 48-64-48-64 48-64-48-64h-76.8l48 64-48 64 48 64-48 64 48 64-48 64 48 64-48 64 48 64-59.2 78.4-38.4-28.8 36.8-49.6-48-64 48-64-48-64 48-64-48-64 48-64-48-64 48-64-48-64h-76.8l48 64-48 64 48 64-48 64 48 64-59.2 78.4-38.4-28.8 36.8-49.6-48-64 48-64-48-64 48-64-48-64h-35.2l-11.2 384 14.4 384h451.2l14.4-384-14.4-384z" />
<glyph unicode="&#xe904;" glyph-name="unit" d="M691.2 656l72-192h-502.4l72 192h358.4zM736 720h-448l-96-256v-64h640v64l-96 256zM768 400v-160h-512v160h512zM832 464h-640v-288h640v288zM496 320c0-17.673-14.327-32-32-32s-32 14.327-32 32c0 17.673 14.327 32 32 32s32-14.327 32-32zM688 288h-96c-17.6 0-32 14.4-32 32v0c0 17.6 14.4 32 32 32h96c17.6 0 32-14.4 32-32v0c0-17.6-14.4-32-32-32zM368 320c0-17.673-14.327-32-32-32s-32 14.327-32 32c0 17.673 14.327 32 32 32s32-14.327 32-32zM784 766.4v48c52.8 0 96-43.2 96-96h-48c-1.6 27.2-22.4 48-48 48zM784 864v48c105.6 0 192-86.4 192-192h-48c0 78.4-65.6 142.4-144 144zM784 960v48c158.4 0 288-129.6 288-289.6h-48c0 132.8-107.2 240-240 241.6z" />
<glyph unicode="&#xe905;" glyph-name="unit-health" d="M640 320c0-17.673-14.327-32-32-32s-32 14.327-32 32c0 17.673 14.327 32 32 32s32-14.327 32-32zM832 288c17.6 0 32 14.4 32 32s-14.4 32-32 32h-96c-17.6 0-32-14.4-32-32s14.4-32 32-32h96zM512 320c0-17.673-14.327-32-32-32s-32 14.327-32 32c0 17.673 14.327 32 32 32s32-14.327 32-32zM928 814.4v-48c25.6 0 46.4-20.8 48-48h48c0 52.8-43.2 96-96 96zM928 912v-48c78.4-1.6 144-65.6 144-144h48c0 105.6-86.4 192-192 192zM928 1008v-48c132.8-1.6 240-108.8 240-241.6h48c0 160-129.6 289.6-288 289.6zM528 720v-64h307.2l72-192h-409.6c-12.8-24-28.8-44.8-48-64h462.4v-160h-512v123.2c-19.2-11.2-41.6-20.8-64-25.6v-160h640v286.4l-96 256h-352zM400 56c-32 0-57.6-19.2-67.2-48h-180.8c-44.8 0-80 35.2-80 80s35.2 80 80 80c70.4 0 128 57.6 128 128v96c102.4 4.8 184 88 184 192v288h-88v40h-64v-128h64v40h24v-240c0-70.4-57.6-128-128-128h-32c-70.4 0-128 57.6-128 128v240h24v-40h64v128h-64v-40h-88v-288c0-102.4 81.6-187.2 184-192v-96c0-44.8-35.2-80-80-80-70.4 0-128-57.6-128-128s57.6-128 128-128h180.8c9.6-28.8 36.8-48 67.2-48 40 0 72 32 72 72s-32 72-72 72zM400-40c-12.8 0-24 11.2-24 24s11.2 24 24 24 24-11.2 24-24-11.2-24-24-24z" />
<glyph unicode="&#xe906;" glyph-name="unprotect-car" d="M918.4 241.6c25.6-30.4 41.6-70.4 41.6-113.6v-16h-36.8c-14.4 46.4-56 80-107.2 80s-92.8-33.6-107.2-80h-377.6c-14.4 46.4-56 80-107.2 80s-92.8-33.6-107.2-80h-52.8v16c0 97.6 78.4 176 176 176h289.6c-20.8 19.2-40 41.6-57.6 64h-72v123.2c1.6 0 4.8 0 6.4 1.6-6.4 20.8-12.8 41.6-16 62.4-112-20.8-204.8-99.2-243.2-204.8-86.4-36.8-147.2-123.2-147.2-222.4v-80h116.8c3.2-11.2 8-22.4 16-32h-228.8v-48h320c51.2 0 92.8 33.6 107.2 80h377.6c14.4-46.4 56-80 107.2-80s92.8 33.6 107.2 80h100.8v80c0 56-19.2 107.2-51.2 147.2-17.6-12.8-35.2-24-54.4-33.6zM352 476.8v-108.8h-112c-4.8 0-9.6 0-12.8 0 27.2 48 72 88 124.8 108.8zM224 48c-17.6 0-32 14.4-32 32s14.4 32 32 32 32-14.4 32-32-14.4-32-32-32zM816 48c-17.6 0-32 14.4-32 32s14.4 32 32 32 32-14.4 32-32-14.4-32-32-32zM145.6 494.4c0 25.6 20.8 48 46.4 48v48c-52.8 0-96-43.2-96-96h49.6zM192 688c-105.6 0-192-86.4-192-192h48c0 80 64 144 144 144v48zM192 736v48c-158.4 0-288-129.6-288-289.6h48c0 132.8 107.2 240 240 241.6zM400 256h96v-32h-96v32zM912 656h-176v64c0 17.6 14.4 32 32 32s32-14.4 32-32v-16h64v16c0 52.8-43.2 96-96 96s-96-43.2-96-96v-64h-48v-224h288v224zM848 496h-160v96h160v-96zM768 256c180.8 30.4 320 188.8 320 379.2 0 116.8-51.2 220.8-132.8 291.2-28.8-12.8-59.2-20.8-91.2-20.8-35.2 0-67.2 8-96 22.4-28.8-14.4-60.8-22.4-96-22.4-32 0-62.4 6.4-91.2 19.2-81.6-70.4-132.8-174.4-132.8-289.6 0-190.4 139.2-348.8 320-379.2zM596.8 852.8c24-6.4 49.6-9.6 75.2-9.6 33.6-1.6 65.6 4.8 96 16 30.4-11.2 62.4-16 96-16 25.6 0 49.6 3.2 75.2 9.6 54.4-59.2 84.8-136 84.8-217.6 0-153.6-107.2-283.2-256-313.6-148.8 30.4-256 160-256 313.6 0 81.6 30.4 158.4 84.8 217.6z" />
<glyph unicode="&#xe907;" glyph-name="unprotect-car2" d="M918.4 241.6c25.6-30.4 41.6-70.4 41.6-113.6v-16h-36.8c-14.4 46.4-56 80-107.2 80s-92.8-33.6-107.2-80h-377.6c-14.4 46.4-56 80-107.2 80s-92.8-33.6-107.2-80h-52.8v16c0 97.6 78.4 176 176 176h289.6c-20.8 19.2-40 41.6-57.6 64h-72v123.2c1.6 0 4.8 0 6.4 1.6-6.4 20.8-12.8 41.6-16 62.4-112-20.8-204.8-99.2-243.2-204.8-86.4-36.8-147.2-123.2-147.2-222.4v-80h116.8c3.2-11.2 8-22.4 16-32h-228.8v-48h320c51.2 0 92.8 33.6 107.2 80h377.6c14.4-46.4 56-80 107.2-80s92.8 33.6 107.2 80h100.8v80c0 56-19.2 107.2-51.2 147.2-17.6-12.8-35.2-24-54.4-33.6zM352 476.8v-108.8h-112c-4.8 0-9.6 0-12.8 0 27.2 48 72 88 124.8 108.8zM224 48c-17.6 0-32 14.4-32 32s14.4 32 32 32 32-14.4 32-32-14.4-32-32-32zM816 48c-17.6 0-32 14.4-32 32s14.4 32 32 32 32-14.4 32-32-14.4-32-32-32zM145.6 494.4c0 25.6 20.8 48 46.4 48v48c-52.8 0-96-43.2-96-96h49.6zM192 688c-105.6 0-192-86.4-192-192h48c0 80 64 144 144 144v48zM192 736v48c-158.4 0-288-129.6-288-289.6h48c0 132.8 107.2 240 240 241.6zM400 256h96v-32h-96v32zM680 600h176v-112h-176v112zM955.2 924.8c-28.8-11.2-59.2-19.2-91.2-19.2-35.2 0-67.2 8-96 22.4-28.8-14.4-60.8-22.4-96-22.4-32 0-62.4 6.4-91.2 19.2-81.6-70.4-132.8-174.4-132.8-289.6 0-190.4 139.2-348.8 320-379.2 180.8 30.4 320 188.8 320 379.2 0 115.2-51.2 219.2-132.8 289.6zM904 440h-272v208h48v72c0 48 40 88 88 88s88-40 88-88v-24h-48v24c0 22.4-17.6 40-40 40s-40-17.6-40-40v-72h176v-208z" />
<glyph unicode="&#xe908;" glyph-name="route" d="M544 468.8v160l-195.2 195.2h115.2v64h-224v-224h64v115.2l176-176v-134.4c-91.2-16-160-94.4-160-188.8 0-105.6 86.4-192 192-192s192 86.4 192 192c0 94.4-68.8 174.4-160 188.8zM512 152c-70.4 0-128 57.6-128 128 0 59.2 41.6 108.8 96 123.2v-68.8c-19.2-11.2-32-32-32-54.4 0-35.2 28.8-64 64-64s64 28.8 64 64c0 24-12.8 44.8-32 54.4v68.8c54.4-14.4 96-64 96-123.2 0-70.4-57.6-128-128-128z" />
<glyph unicode="&#xe909;" glyph-name="search" d="M668 348.8c67.2 88 60.8 212.8-20.8 292.8-44.8 44.8-102.4 65.6-158.4 65.6-57.6 0-115.2-22.4-158.4-65.6-88-88-88-228.8 0-316.8 43.2-43.2 100.8-65.6 158.4-65.6 46.4 0 94.4 14.4 132.8 44.8l115.2-115.2 44.8 44.8-113.6 115.2zM602.4 371.2c-30.4-30.4-70.4-46.4-113.6-46.4s-83.2 16-113.6 46.4c-62.4 62.4-62.4 163.2 0 225.6 30.4 30.4 70.4 46.4 113.6 46.4s83.2-16 113.6-46.4c62.4-62.4 62.4-163.2 0-225.6z" />
<glyph unicode="&#xe90a;" glyph-name="settings" d="M640-80h-256v153.6l-56 19.2-104-105.6-172.8 172.8 104 104-17.6 56h-153.6v256h153.6l19.2 56-105.6 104 172.8 172.8 104-104 56 17.6v153.6h256v-153.6l56-19.2 104 105.6 172.8-172.8-104-104 19.2-56h152v-256h-153.6l-19.2-56 104-104-171.2-172.8-104 104-56-17.6v-153.6zM448-16h128v134.4l136 44.8 88-88 83.2 83.2-88 88 44.8 136h136v128h-134.4l-44.8 136 88 88-84.8 84.8-88-88-136 46.4v134.4h-128v-134.4l-136-44.8-88 86.4-83.2-83.2 88-88-46.4-136h-134.4v-128h134.4l44.8-136-86.4-88 83.2-83.2 88 88 136-44.8v-136zM512 320c-70.4 0-128 57.6-128 128s57.6 128 128 128 128-57.6 128-128-57.6-128-128-128zM512 512c-35.2 0-64-28.8-64-64s28.8-64 64-64c35.2 0 64 28.8 64 64s-28.8 64-64 64z" />
<glyph unicode="&#xe90b;" glyph-name="social" d="M672 360c-30.4 0-60.8-8-86.4-22.4l-136 136c9.6 19.2 14.4 40 14.4 62.4 0 28.8-8 54.4-22.4 76.8l92.8 92.8c12.8-6.4 27.2-9.6 41.6-9.6 52.8 0 96 43.2 96 96s-43.2 96-96 96-96-43.2-96-96c0-14.4 3.2-28.8 9.6-41.6l-92.8-92.8c-22.4 14.4-48 22.4-76.8 22.4-80 0-144-64-144-144s64-144 144-144c22.4 0 43.2 4.8 62.4 14.4l136-136c-14.4-25.6-22.4-54.4-22.4-86.4 0-97.6 78.4-176 176-176s176 78.4 176 176-78.4 176-176 176zM576 840c27.2 0 48-20.8 48-48s-20.8-48-48-48-48 20.8-48 48c0 27.2 20.8 48 48 48zM256 536c0 35.2 28.8 64 64 64s64-28.8 64-64-28.8-64-64-64-64 28.8-64 64zM672 104c-44.8 0-80 35.2-80 80s35.2 80 80 80 80-35.2 80-80-35.2-80-80-80z" />
<glyph unicode="&#xe90c;" glyph-name="thief" d="M656 656c0-26.51-21.49-48-48-48s-48 21.49-48 48c0 26.51 21.49 48 48 48s48-21.49 48-48zM464 656c0-26.51-21.49-48-48-48s-48 21.49-48 48c0 26.51 21.49 48 48 48s48-21.49 48-48zM737.6 339.2l30.4 60.8h-88c49.6 43.2 83.2 105.6 86.4 176h-508.8c4.8-70.4 36.8-132.8 86.4-176h-88l30.4-60.8c-132.8-76.8-222.4-220.8-222.4-387.2h64c0 211.2 172.8 384 384 384s384-172.8 384-384h64c0 166.4-89.6 310.4-222.4 387.2zM576 464h-128v32h128v-32zM723.2 832c-46.4 67.2-123.2 112-211.2 112s-164.8-44.8-211.2-112h-44.8v-96h512v96h-44.8z" />
<glyph unicode="&#xe90d;" glyph-name="thief2" d="M656 656c0-26.51-21.49-48-48-48s-48 21.49-48 48c0 26.51 21.49 48 48 48s48-21.49 48-48zM464 656c0-26.51-21.49-48-48-48s-48 21.49-48 48c0 26.51 21.49 48 48 48s48-21.49 48-48zM723.2 832c-46.4 67.2-123.2 112-211.2 112s-164.8-44.8-211.2-112h-44.8v-96h512v96h-44.8zM960-48c0 166.4-89.6 310.4-222.4 387.2l30.4 60.8h-88c49.6 43.2 83.2 105.6 86.4 176h-508.8c4.8-70.4 36.8-132.8 86.4-176h-88l30.4-60.8c-132.8-76.8-222.4-220.8-222.4-387.2h64c0 96 36.8 185.6 96 252.8v-252.8h128v348.8c30.4 14.4 62.4 24 96 30.4v-379.2h128v379.2c33.6-6.4 65.6-16 96-30.4v-348.8h128v252.8c59.2-67.2 96-156.8 96-252.8h64zM576 464h-128v32h128v-32z" />
<glyph unicode="&#xe90e;" glyph-name="renewal" d="M512 960v-64c246.4 0 448-201.6 448-448s-201.6-448-448-448-448 201.6-448 448v195.2l73.6-73.6 44.8 44.8-150.4 150.4-150.4-150.4 44.8-44.8 73.6 73.6v-195.2c0-281.6 230.4-512 512-512s512 230.4 512 512c0 281.6-230.4 512-512 512zM752 536v-336h-480v336zM816 600h-608v-464h608v464zM344 472h80v-80h-80v80zM344 344h80v-80h-80v80zM600 472h80v-80h-80v80zM600 344h80v-80h-80v80zM472 472h80v-80h-80v80zM472 344h80v-80h-80v80zM440 760h144v-64h-144v64zM664 760v-64h88v-96h-480v96h88v64h-152v-224h608v224zM416 792v-96h-32v96zM464 840h-128v-192h128v192zM640 792v-96h-32v96zM688 840h-128v-192h128v192z" />
<glyph unicode="&#xe90f;" glyph-name="power" d="M512 32c-228.8 0-416 187.2-416 416s187.2 416 416 416c228.8 0 416-187.2 416-416s-187.2-416-416-416zM512 800c-193.6 0-352-158.4-352-352s158.4-352 352-352 352 158.4 352 352-158.4 352-352 352zM480 736h64v-224h-64v224zM608 649.6v-73.6c38.4-28.8 64-75.2 64-128 0-88-72-160-160-160s-160 72-160 160c0 52.8 25.6 99.2 64 128v73.6c-75.2-36.8-128-113.6-128-201.6 0-123.2 100.8-224 224-224s224 100.8 224 224c0 89.6-52.8 166.4-128 201.6z" />
<glyph unicode="&#xe910;" glyph-name="protect-car" d="M918.4 241.6c25.6-30.4 41.6-70.4 41.6-113.6v-16h-36.8c-14.4 46.4-56 80-107.2 80s-92.8-33.6-107.2-80h-377.6c-14.4 46.4-56 80-107.2 80s-92.8-33.6-107.2-80h-52.8v16c0 97.6 78.4 176 176 176h289.6c-20.8 19.2-40 41.6-57.6 64h-72v123.2c1.6 0 4.8 0 6.4 1.6-6.4 20.8-12.8 41.6-16 62.4-112-20.8-204.8-99.2-243.2-204.8-86.4-36.8-147.2-123.2-147.2-222.4v-80h116.8c3.2-11.2 8-22.4 16-32h-228.8v-48h320c51.2 0 92.8 33.6 107.2 80h377.6c14.4-46.4 56-80 107.2-80s92.8 33.6 107.2 80h100.8v80c0 56-19.2 107.2-51.2 147.2-17.6-12.8-35.2-24-54.4-33.6zM352 476.8v-108.8h-112c-4.8 0-9.6 0-12.8 0 27.2 48 72 88 124.8 108.8zM224 48c-17.6 0-32 14.4-32 32s14.4 32 32 32 32-14.4 32-32-14.4-32-32-32zM816 48c-17.6 0-32 14.4-32 32s14.4 32 32 32 32-14.4 32-32-14.4-32-32-32zM145.6 494.4c0 25.6 20.8 48 46.4 48v48c-52.8 0-96-43.2-96-96h49.6zM192 688c-105.6 0-192-86.4-192-192h48c0 80 64 144 144 144v48zM192 736v48c-158.4 0-288-129.6-288-289.6h48c0 132.8 107.2 240 240 241.6zM400 256h96v-32h-96v32zM768 256c180.8 30.4 320 188.8 320 379.2 0 116.8-51.2 220.8-132.8 291.2-28.8-12.8-59.2-20.8-91.2-20.8-35.2 0-67.2 8-96 22.4-28.8-14.4-60.8-22.4-96-22.4-32 0-62.4 6.4-91.2 19.2-81.6-70.4-132.8-174.4-132.8-289.6 0-190.4 139.2-348.8 320-379.2zM596.8 852.8c24-6.4 49.6-9.6 75.2-9.6 33.6-1.6 65.6 4.8 96 16 30.4-11.2 62.4-16 96-16 25.6 0 49.6 3.2 75.2 9.6 54.4-59.2 84.8-136 84.8-217.6 0-153.6-107.2-283.2-256-313.6-148.8 30.4-256 160-256 313.6 0 81.6 30.4 158.4 84.8 217.6zM912 656h-48v64c0 52.8-43.2 96-96 96s-96-43.2-96-96v-64h-48v-224h288v224zM736 720c0 17.6 14.4 32 32 32s32-14.4 32-32v-64h-64v64zM848 496h-160v96h160v-96z" />
<glyph unicode="&#xe911;" glyph-name="protect-car2" d="M918.4 241.6c25.6-30.4 41.6-70.4 41.6-113.6v-16h-36.8c-14.4 46.4-56 80-107.2 80s-92.8-33.6-107.2-80h-377.6c-14.4 46.4-56 80-107.2 80s-92.8-33.6-107.2-80h-52.8v16c0 97.6 78.4 176 176 176h289.6c-20.8 19.2-40 41.6-57.6 64h-72v123.2c1.6 0 4.8 0 6.4 1.6-6.4 20.8-12.8 41.6-16 62.4-112-20.8-204.8-99.2-243.2-204.8-86.4-36.8-147.2-123.2-147.2-222.4v-80h116.8c3.2-11.2 8-22.4 16-32h-228.8v-48h320c51.2 0 92.8 33.6 107.2 80h377.6c14.4-46.4 56-80 107.2-80s92.8 33.6 107.2 80h100.8v80c0 56-19.2 107.2-51.2 147.2-17.6-12.8-35.2-24-54.4-33.6zM352 476.8v-108.8h-112c-4.8 0-9.6 0-12.8 0 27.2 48 72 88 124.8 108.8zM224 48c-17.6 0-32 14.4-32 32s14.4 32 32 32 32-14.4 32-32-14.4-32-32-32zM816 48c-17.6 0-32 14.4-32 32s14.4 32 32 32 32-14.4 32-32-14.4-32-32-32zM145.6 494.4c0 25.6 20.8 48 46.4 48v48c-52.8 0-96-43.2-96-96h49.6zM192 688c-105.6 0-192-86.4-192-192h48c0 80 64 144 144 144v48zM192 736v48c-158.4 0-288-129.6-288-289.6h48c0 132.8 107.2 240 240 241.6zM400 256h96v-32h-96v32zM680 600h176v-112h-176v112zM955.2 924.8c-28.8-11.2-59.2-19.2-91.2-19.2-35.2 0-67.2 8-96 22.4-28.8-14.4-60.8-22.4-96-22.4-32 0-62.4 6.4-91.2 19.2-81.6-70.4-132.8-174.4-132.8-289.6 0-190.4 139.2-348.8 320-379.2 180.8 30.4 320 188.8 320 379.2 0 115.2-51.2 219.2-132.8 289.6zM904 440h-272v208h48v72c0 48 40 88 88 88s88-40 88-88v-72h48v-208zM808 720c0 22.4-17.6 40-40 40s-40-17.6-40-40v-72h80v72z" />
<glyph unicode="&#xe912;" glyph-name="register-device" d="M592 320c0-17.673-14.327-32-32-32s-32 14.327-32 32c0 17.673 14.327 32 32 32s32-14.327 32-32zM784 288h-96c-17.6 0-32 14.4-32 32v0c0 17.6 14.4 32 32 32h96c17.6 0 32-14.4 32-32v0c0-17.6-14.4-32-32-32zM880 766.4v48c52.8 0 96-43.2 96-96h-48c-1.6 27.2-22.4 48-48 48zM880 864v48c105.6 0 192-86.4 192-192h-48c0 78.4-65.6 142.4-144 144zM880 960v48c158.4 0 288-129.6 288-289.6h-48c0 132.8-107.2 240-240 241.6zM832 720h-320v-64h275.2l72-192h-347.2v-64h352v-160h-352v-64h416v288zM384 848h-320c-35.2 0-64-28.8-64-64v-672c0-35.2 28.8-64 64-64h320c35.2 0 64 28.8 64 64v672c0 35.2-28.8 64-64 64zM176 800h96c9.6 0 16-6.4 16-16s-6.4-16-16-16h-96c-9.6 0-16 6.4-16 16s6.4 16 16 16zM224 80c-17.6 0-32 14.4-32 32s14.4 32 32 32 32-14.4 32-32-14.4-32-32-32zM408 176h-368v544h368v-544zM203.2 484.8l-22.4 22.4-36.8-36.8-36.8 36.8-22.4-22.4 20.8-20.8h-25.6v-32h25.6l-20.8-20.8 22.4-22.4 36.8 36.8 36.8-36.8 22.4 22.4-20.8 20.8h25.6v32h-25.6zM368 464h-25.6l20.8 20.8-22.4 22.4-36.8-36.8-36.8 36.8-22.4-22.4 20.8-20.8h-25.6v-32h25.6l-20.8-20.8 22.4-22.4 36.8 36.8 36.8-36.8 22.4 22.4-20.8 20.8h25.6z" />
<glyph unicode="&#xe913;" glyph-name="plus" d="M768 488h-216v216h-80v-216h-216v-80h216v-216h80v216h216z" />
<glyph unicode="&#xe914;" glyph-name="icon-pen" d="M416 928v-64h-96v-224h64v160h32v-736h192v864h-192zM544 128h-64v736h64v-736zM608 32l-96-96-96 96z" />
<glyph unicode="&#xe915;" glyph-name="pen2" d="M760 800l-46.4-46.4-78.4 76.8-158.4-158.4 44.8-44.8 113.6 113.6 32-32-518.4-518.4 136-136 612.8 611.2-137.6 134.4zM238.4 190.4l523.2 520 44.8-44.8-521.6-521.6-46.4 46.4zM126.4 32h136l-136 136z" />
<glyph unicode="&#xe916;" glyph-name="person" d="M512 832c105.6 0 192-86.4 192-192s-86.4-192-192-192-192 86.4-192 192 86.4 192 192 192zM512 896c-140.8 0-256-115.2-256-256s115.2-256 256-256 256 115.2 256 256-115.2 256-256 256v0zM512 384c211.2 0 384-172.8 384-384h64c0 248-200 448-448 448s-448-200-448-448h64c0 211.2 172.8 384 384 384z" />
<glyph unicode="&#xe917;" glyph-name="number-plate" d="M539.2 678.4c-19.2 38.4-60.8 65.6-107.2 65.6-65.6 0-120-54.4-120-120s54.4-120 120-120c46.4 0 86.4 27.2 107.2 65.6 16-20.8 41.6-33.6 68.8-33.6 48 0 88 40 88 88s-40 88-88 88c-28.8 0-52.8-12.8-68.8-33.6zM432 552c-40 0-72 32-72 72s32 72 72 72 72-32 72-72-32-72-72-72zM648 624c0-22.4-17.6-40-40-40s-40 17.6-40 40 17.6 40 40 40 40-17.6 40-40zM624 264l28.8 27.2 27.2-27.2 24 24-27.2 27.2 27.2 28.8-24 24-27.2-28.8-28.8 28.8-24-24 28.8-28.8-28.8-27.2zM504 384h-216v355.2c-24-17.6-44.8-40-64-62.4v-292.8h-32v-96h32v-68.8c51.2-65.6 124.8-112 208-131.2v200h72v-96h272c14.4 14.4 27.2 30.4 40 48h-264v176h326.4c1.6 11.2 1.6 20.8 1.6 32 0 4.8 0 11.2 0 16h-376v-80zM867.2 348.8l-19.2 19.2-28.8-28.8-27.2 28.8-24-24 28.8-28.8-28.8-27.2 24-24 28.8 28.8 16-16c6.4 11.2 11.2 20.8 16 32l-8 8 17.6 17.6c1.6 4.8 3.2 9.6 4.8 14.4zM512 880c238.4 0 432-193.6 432-432s-193.6-432-432-432-432 193.6-432 432 193.6 432 432 432zM512 928c-265.6 0-480-214.4-480-480s214.4-480 480-480 480 214.4 480 480-214.4 480-480 480v0z" />
<glyph unicode="&#xe918;" glyph-name="padlock" d="M800 512v128c0 158.4-129.6 288-288 288s-288-129.6-288-288v-128h-96v-544h768v544h-96zM288 640c0 123.2 100.8 224 224 224s224-100.8 224-224v-128h-448v128zM832 32h-640v416h640v-416zM480 182.4v-70.4h64v70.4c36.8 12.8 64 48 64 89.6 0 52.8-43.2 96-96 96s-96-43.2-96-96c0-41.6 27.2-76.8 64-89.6zM512 304c17.6 0 32-14.4 32-32s-14.4-32-32-32c-17.6 0-32 14.4-32 32s14.4 32 32 32z" />
<glyph unicode="&#xe919;" glyph-name="padlock-open" d="M288 512v128c0 123.2 100.8 224 224 224s224-100.8 224-224v-32h64v32c0 158.4-129.6 288-288 288s-288-129.6-288-288v-128h-96v-544h768v544h-608zM832 32h-640v416h640v-416zM480 182.4v-70.4h64v70.4c36.8 12.8 64 48 64 89.6 0 52.8-43.2 96-96 96s-96-43.2-96-96c0-41.6 27.2-76.8 64-89.6zM512 304c17.6 0 32-14.4 32-32s-14.4-32-32-32c-17.6 0-32 14.4-32 32s14.4 32 32 32z" />
<glyph unicode="&#xe91a;" glyph-name="parking" d="M512 672h-64v-128h64c35.2 0 64 28.8 64 64s-28.8 64-64 64zM800 848h-576v-576h240v-224h96v224h240v576zM512 448h-64v-96h-96v416h160c88 0 160-72 160-160s-72-160-160-160z" />
<glyph unicode="&#xe91b;" glyph-name="parking-alternative" d="M864 656v-384h96v-128h64v128h160v384h-320zM992 416h-32v-64h-48v224h80c44.8 0 80-35.2 80-80s-35.2-80-80-80zM32 528h-32v-64h32c17.6 0 32 14.4 32 32s-14.4 32-32 32zM992 528h-32v-64h32c17.6 0 32 14.4 32 32s-14.4 32-32 32zM512 672h-64v-128h64c35.2 0 64 28.8 64 64s-28.8 64-64 64zM800 848h-576v-576h240v-224h96v224h240v576zM512 448h-64v-96h-96v416h160c88 0 160-72 160-160s-72-160-160-160zM160 656h-320v-384h160v-128h64v128h96v384zM32 416h-32v-64h-48v224h80c44.8 0 80-35.2 80-80s-35.2-80-80-80z" />
<glyph unicode="&#xe91c;" glyph-name="mobile" d="M736 960h-448c-35.2 0-64-28.8-64-64v-896c0-35.2 28.8-64 64-64h448c35.2 0 64 28.8 64 64v896c0 35.2-28.8 64-64 64zM448 896h128c9.6 0 16-6.4 16-16s-6.4-16-16-16h-128c-9.6 0-16 6.4-16 16s6.4 16 16 16zM512-32c-27.2 0-48 20.8-48 48s20.8 48 48 48 48-20.8 48-48-20.8-48-48-48zM752 96h-480v704h480v-704z" />
<glyph unicode="&#xe91d;" glyph-name="membership" d="M976 752v-608h-928v608h928zM1024 800h-1024v-704h1024v704zM352 656c52.8 0 96-43.2 96-96s-43.2-96-96-96-96 43.2-96 96 43.2 96 96 96zM352 720c-88 0-160-72-160-160s72-160 160-160 160 72 160 160-72 160-160 160v0zM352 464c-140.8 0-256-115.2-256-256h64c0 105.6 86.4 192 192 192s192-86.4 192-192h64c0 140.8-115.2 256-256 256zM592 472h320v-48h-320v48zM688 360h224v-48h-224v48zM656 584h256v-48h-256v48z" />
<glyph unicode="&#xe91e;" glyph-name="menu" d="M192 672h640v-64h-640v64zM192 480h640v-64h-640v64zM192 288h640v-64h-640v64z" />
<glyph unicode="&#xe91f;" glyph-name="message" d="M896 800v-512h-443.2l-132.8-132.8v132.8h-192v512h768zM960 864h-896v-640h192v-224l224 224h480v640zM256 704h512v-64h-512v64zM256 576h512v-64h-512v64zM256 448h512v-64h-512v64z" />
<glyph unicode="&#xe920;" glyph-name="minus" d="M256 488h512v-80h-512v80z" />
<glyph unicode="&#xe921;" glyph-name="membership2" d="M976 752v-608h-928v608h928zM1024 800h-1024v-704h1024v704zM352 656c52.8 0 96-43.2 96-96s-43.2-96-96-96-96 43.2-96 96 43.2 96 96 96zM352 720c-88 0-160-72-160-160s72-160 160-160 160 72 160 160-72 160-160 160v0zM352 464c-140.8 0-256-115.2-256-256h64c0 105.6 86.4 192 192 192s192-86.4 192-192h64c0 140.8-115.2 256-256 256zM592 472h320v-48h-320v48zM688 360h224v-48h-224v48zM656 584h256v-48h-256v48z" />
<glyph unicode="&#xe922;" glyph-name="megaphone" d="M592 704h-384c-115.2 0-208-92.8-208-208s92.8-208 208-208h41.6l-89.6-208h128l89.6 208h214.4l272-160h64v736h-64l-272-160zM512 640v-288h-48v288h48zM64 496c0 80 64 144 144 144h192v-288h-192c-80 0-144 64-144 144zM864 203.2l-240 140.8-14.4 8h-33.6v288h33.6l14.4 9.6 240 140.8v-587.2zM176 496c0-17.673-14.327-32-32-32s-32 14.327-32 32c0 17.673 14.327 32 32 32s32-14.327 32-32zM232 560c0-13.255-10.745-24-24-24s-24 10.745-24 24c0 13.255 10.745 24 24 24s24-10.745 24-24zM232 432c0-13.255-10.745-24-24-24s-24 10.745-24 24c0 13.255 10.745 24 24 24s24-10.745 24-24zM1000 632l-33.6-33.6c54.4-56 54.4-147.2 0-204.8l33.6-33.6c75.2 75.2 73.6 196.8 0 272z" />
<glyph unicode="&#xe923;" glyph-name="map" d="M640 720l-256 96-256-96v-640l256 96 256-96 256 96v640l-256-96zM408 737.6l208-78.4v-504l-208 78.4v504zM192 675.2l168 62.4v-502.4l-168-64v504zM832 219.2l-168-62.4v502.4l168 64v-504z" />
<glyph unicode="&#xe924;" glyph-name="key" d="M704 576c70.4 0 128-57.6 128-128s-57.6-128-128-128-128 57.6-128 128 57.6 128 128 128zM704 640c-105.6 0-192-86.4-192-192s86.4-192 192-192 192 86.4 192 192-86.4 192-192 192v0zM128 480h416v-64h-416v64zM192 448h64v-160h-64v160zM320 448h64v-96h-64v96z" />
<glyph unicode="&#xe925;" glyph-name="info" d="M510.4 33.6c-105.6 0-212.8 40-292.8 120-78.4 76.8-121.6 182.4-121.6 294.4s43.2 216 121.6 294.4c160 163.2 425.6 163.2 588.8 0v0c78.4-78.4 123.2-184 121.6-296 0-110.4-43.2-214.4-121.6-292.8-81.6-80-188.8-120-296-120zM510.4 800c-89.6 0-180.8-33.6-248-102.4-137.6-139.2-137.6-363.2 0-499.2s361.6-134.4 499.2 1.6c65.6 65.6 102.4 153.6 102.4 248s-36.8 182.4-104 249.6c-68.8 68.8-158.4 102.4-249.6 102.4zM480 560h64v-352h-64v352zM480 688h64v-64h-64v64z" />
<glyph unicode="&#xe926;" glyph-name="help-support" d="M896 448c0 43.2-6.4 83.2-19.2 121.6v0c-19.2 57.6-51.2 108.8-92.8 150.4v0c-41.6 41.6-92.8 73.6-150.4 92.8v0c-14.4 4.8-28.8 8-43.2 11.2-1.6 0-1.6 0-3.2 0-8 1.6-16 3.2-24 4.8-4.8 0-9.6 1.6-14.4 1.6-3.2 0-6.4 0-9.6 0-9.6 1.6-17.6 1.6-27.2 1.6s-17.6 0-27.2-1.6c-3.2 0-6.4 0-9.6 0-4.8 0-9.6-1.6-14.4-1.6-8-1.6-16-3.2-24-4.8-1.6 0-1.6 0-3.2 0-14.4-3.2-28.8-6.4-43.2-11.2v0c-57.6-19.2-108.8-51.2-150.4-92.8v0c-41.6-41.6-73.6-92.8-92.8-150.4v0c-12.8-38.4-19.2-78.4-19.2-121.6s6.4-83.2 19.2-121.6v0c19.2-57.6 51.2-108.8 92.8-150.4v0c41.6-41.6 92.8-73.6 150.4-92.8v0c14.4-4.8 28.8-8 43.2-11.2 1.6 0 1.6 0 3.2 0 8-1.6 16-3.2 24-4.8 4.8 0 9.6-1.6 14.4-1.6 3.2 0 6.4 0 9.6 0 8 0 17.6-1.6 27.2-1.6s17.6 0 27.2 1.6c3.2 0 6.4 0 9.6 0 4.8 0 9.6 1.6 14.4 1.6 8 1.6 16 3.2 24 4.8 1.6 0 1.6 0 3.2 0 14.4 3.2 28.8 6.4 43.2 11.2v0c57.6 19.2 108.8 51.2 150.4 92.8v0c41.6 41.6 73.6 92.8 92.8 150.4v0c12.8 38.4 19.2 78.4 19.2 121.6zM492.8 257.6c6.4 0 12.8-1.6 19.2-1.6s12.8 0 19.2 1.6c-6.4-1.6-12.8-1.6-19.2-1.6s-12.8 0-19.2 1.6zM384 448c0 70.4 57.6 128 128 128s128-57.6 128-128-57.6-128-128-128-128 57.6-128 128zM492.8 638.4c6.4 0 12.8 1.6 19.2 1.6s12.8 0 19.2-1.6c-6.4 1.6-12.8 1.6-19.2 1.6s-12.8 0-19.2-1.6zM286.4 222.4l89.6 89.6c-20.8 20.8-36.8 46.4-46.4 75.2l-121.6-40c-11.2 32-16 65.6-16 100.8s6.4 68.8 16 100.8l121.6-40c9.6 28.8 25.6 54.4 46.4 75.2l-89.6 89.6c35.2 35.2 76.8 60.8 124.8 76.8l40-121.6c12.8 4.8 25.6 6.4 40 8-96-9.6-171.2-91.2-171.2-188.8s75.2-179.2 171.2-190.4c-12.8 1.6-27.2 4.8-40 8l-40-121.6c-48 16-91.2 43.2-124.8 78.4zM612.8 144l-40 121.6c-12.8-4.8-25.6-6.4-40-8 96 11.2 171.2 92.8 171.2 190.4s-75.2 179.2-171.2 190.4c12.8-1.6 27.2-4.8 40-8l40 121.6c48-16 89.6-43.2 124.8-76.8l-89.6-89.6c20.8-20.8 36.8-46.4 46.4-75.2l121.6 40c11.2-32 16-65.6 16-100.8s-6.4-68.8-16-100.8l-121.6 40c-9.6-28.8-25.6-54.4-46.4-75.2l89.6-89.6c-33.6-36.8-76.8-64-124.8-80z" />
<glyph unicode="&#xe927;" glyph-name="graph-up" d="M512 787.2v-198.4l-150.4-150.4 44.8-44.8 169.6 169.6v224l137.6-137.6 44.8 44.8-214.4 214.4-214.4-214.4 44.8-44.8zM784 368c27.2 0 49.6 16 59.2 40h116.8v48h-116.8c-9.6 24-32 40-59.2 40-35.2 0-64-28.8-64-64 0-6.4 1.6-11.2 1.6-16l-161.6-121.6c-8 6.4-19.2 9.6-32 9.6-32 0-59.2-24-62.4-54.4l-140.8-35.2c-11.2 16-30.4 25.6-51.2 25.6-35.2 0-64-28.8-64-64 0-9.6 1.6-17.6 4.8-25.6l-86.4-84.8v542.4h-64v-640h896v64h-798.4l84.8 84.8c8-3.2 16-4.8 25.6-4.8 32 0 59.2 24 62.4 54.4l140.8 35.2c11.2-16 30.4-25.6 51.2-25.6 35.2 0 64 28.8 64 64 0 6.4-1.6 11.2-1.6 16l161.6 121.6c9.6-6.4 20.8-9.6 33.6-9.6z" />
<glyph unicode="&#xe928;" glyph-name="graph-down" d="M374.4 630.4l-44.8-44.8 214.4-214.4 214.4 214.4-44.8 44.8-137.6-137.6v224l-169.6 169.6-44.8-44.8 150.4-150.4v-198.4zM128 32v432l80-32c0-35.2 28.8-64 64-64 12.8 0 24 3.2 33.6 9.6l160-121.6c-1.6-4.8-1.6-11.2-1.6-16 0-35.2 28.8-64 64-64 20.8 0 40 11.2 51.2 25.6l140.8-35.2c4.8-30.4 32-54.4 64-54.4 12.8 0 24 3.2 33.6 9.6l64-46.4 27.2 38.4-64 46.4c3.2 6.4 3.2 11.2 3.2 16 0 35.2-28.8 64-64 64-20.8 0-40-11.2-51.2-25.6l-140.8 35.2c-4.8 30.4-32 54.4-64 54.4-12.8 0-24-3.2-33.6-9.6l-160 121.6c1.6 4.8 1.6 11.2 1.6 16 0 35.2-28.8 64-64 64-17.6 0-35.2-8-46.4-19.2l-97.6 38.4v92.8h-64v-640h896v64h-832z" />
<glyph unicode="&#xe929;" glyph-name="geofence" d="M512.8 297.6l158.4 158.4c88 88 88 228.8 0 316.8-43.2 43.2-100.8 65.6-158.4 65.6s-115.2-22.4-158.4-65.6c-88-88-88-228.8 0-316.8l158.4-158.4zM399.2 728c30.4 30.4 70.4 46.4 113.6 46.4s83.2-16 113.6-46.4c62.4-62.4 62.4-163.2 0-225.6l-113.6-113.6-113.6 113.6c-62.4 62.4-62.4 163.2 0 225.6zM576.8 614.4c0-35.346-28.654-64-64-64s-64 28.654-64 64c0 35.346 28.654 64 64 64s64-28.654 64-64zM1008.8 201.6c-1.6 0-3.2 0-4.8 0l-137.6 240c3.2 8 4.8 16 4.8 24 0 30.4-25.6 56-56 56-19.2 0-35.2-9.6-46.4-24h-48v-64h49.6c9.6-12.8 24-22.4 40-24l137.6-240c-1.6-3.2-3.2-4.8-4.8-8h-366.4c-11.2 24-35.2 40-64 40s-52.8-16-64-40h-368c-1.6 3.2-3.2 4.8-4.8 8l137.6 240c17.6 1.6 32 9.6 40 24h51.2v64h-49.6c-9.6 14.4-27.2 24-46.4 24-30.4 0-56-25.6-56-56 0-8 1.6-16 4.8-24l-137.6-240c-1.6 0-3.2 0-4.8 0-40 0-72-32-72-72s32-72 72-72c28.8 0 52.8 16 64 40h368c11.2-24 35.2-40 64-40s52.8 16 64 40h368c11.2-24 35.2-40 64-40 40 0 72 32 72 72 1.6 40-30.4 72-70.4 72z" />
<glyph unicode="&#xe92a;" glyph-name="find-vehicle" d="M129.6 606.4c0 25.6 20.8 48 46.4 48v48c-52.8 0-96-43.2-96-96h49.6zM176 800c-105.6 0-192-86.4-192-192h48c0 80 64 144 144 144v48zM176 848v48c-158.4 0-288-129.6-288-289.6h48c0 132.8 107.2 240 240 241.6zM384 368h96v-32h-96v32zM432 608c33.6 0 65.6-6.4 96-19.2v68.8c-30.4 9.6-62.4 14.4-96 14.4-137.6 0-256-88-300.8-211.2-86.4-35.2-147.2-121.6-147.2-220.8v-80h116.8c3.2-11.2 8-22.4 16-32h-228.8v-48h320c51.2 0 92.8 33.6 107.2 80h212.8v64h-212.8c-14.4 46.4-56 80-107.2 80s-92.8-33.6-107.2-80h-52.8v16c0 97.6 78.4 176 176 176h304v64h-144v123.2c16 3.2 32 4.8 48 4.8zM208 224c17.6 0 32-14.4 32-32s-14.4-32-32-32-32 14.4-32 32 14.4 32 32 32zM336 480h-112c-4.8 0-9.6 0-12.8 0 28.8 49.6 72 88 124.8 110.4v-110.4zM976 800h-320c-35.2 0-64-28.8-64-64v-672c0-35.2 28.8-64 64-64h320c35.2 0 64 28.8 64 64v672c0 35.2-28.8 64-64 64zM768 752h96c9.6 0 16-6.4 16-16s-6.4-16-16-16h-96c-9.6 0-16 6.4-16 16s6.4 16 16 16zM816 32c-17.6 0-32 14.4-32 32s14.4 32 32 32 32-14.4 32-32-14.4-32-32-32zM1000 128h-368v544h368v-544zM840 332.8v142.4l-62.4 62.4h70.4v48h-152v-153.6h48v70.4l48-48v-121.6c-32-9.6-56-40-56-76.8 0-44.8 35.2-80 80-80s80 35.2 80 80c0 36.8-24 65.6-56 76.8zM816 224c-17.6 0-32 14.4-32 32s14.4 32 32 32 32-14.4 32-32-14.4-32-32-32z" />
<glyph unicode="&#xe92b;" glyph-name="filter" d="M288 800h-64v-96h-80v-64h80v-544h64v544h80v64h-80zM544 800h-64v-320h-80v-64h80v-320h64v320h80v64h-80zM880 256h-80v544h-64v-544h-80v-64h80v-96h64v96h80z" />
<glyph unicode="&#xe92c;" glyph-name="eye" d="M512 176c-332.8 0-513.6 243.2-521.6 252.8l-14.4 19.2 14.4 19.2c8 9.6 188.8 252.8 521.6 252.8s513.6-243.2 521.6-252.8l14.4-19.2-14.4-19.2c-8-9.6-188.8-252.8-521.6-252.8zM57.6 448c48-54.4 206.4-208 454.4-208s406.4 153.6 454.4 208c-48 54.4-206.4 208-454.4 208s-406.4-153.6-454.4-208zM512 304c-80 0-144 64-144 144s64 144 144 144c80 0 144-64 144-144s-64-144-144-144zM512 528c-44.8 0-80-35.2-80-80s35.2-80 80-80 80 35.2 80 80-35.2 80-80 80z" />
<glyph unicode="&#xe92d;" glyph-name="exclamation" d="M480 560h64v-224h-64v224zM560 224c0-26.51-21.49-48-48-48s-48 21.49-48 48c0 26.51 21.49 48 48 48s48-21.49 48-48zM512 712l364.8-584h-729.6l364.8 584zM512 832l-480-768h960l-480 768z" />
<glyph unicode="&#xe92e;" glyph-name="cross" d="M816 688l-64 64-240-240-240 240-64-64 240-240-240-240 64-64 240 240 240-240 64 64-240 240z" />
<glyph unicode="&#xe92f;" glyph-name="crime-area2" d="M1062.4-48h-1100.8l227.2 400h83.2v-64h-44.8l-156.8-272h883.2l-156.8 272h-28.8v64h67.2zM737.6 849.6c-62.4 62.4-144 94.4-225.6 94.4s-163.2-32-225.6-94.4c-124.8-124.8-124.8-328 0-452.8l225.6-225.6 225.6 225.6c126.4 126.4 126.4 328 0 452.8zM692.8 443.2l-180.8-180.8-180.8 180.8c-99.2 99.2-99.2 262.4 0 361.6 48 48 112 75.2 180.8 75.2s132.8-27.2 180.8-75.2c100.8-99.2 100.8-262.4 0-361.6zM512 816c-80 0-144-64-144-144 0-43.2 19.2-80 48-107.2v-68.8h32c0-19.2 8-36.8 22.4-48-12.8-11.2-22.4-28.8-22.4-48 0-35.2 28.8-64 64-64s64 28.8 64 64c0 19.2-8 36.8-22.4 48 12.8 11.2 22.4 28.8 22.4 48h32v68.8c28.8 25.6 48 64 48 107.2 0 80-64 144-144 144zM512 368c-17.6 0-32 14.4-32 32s14.4 32 32 32c17.6 0 32-14.4 32-32s-14.4-32-32-32zM512 464c-17.6 0-32 14.4-32 32h64c0-17.6-14.4-32-32-32zM496 536c0 9.6 6.4 16 16 16s16-6.4 16-16-6.4-16-16-16-16 6.4-16 16zM512 576c-52.8 0-96 43.2-96 96s43.2 96 96 96 96-43.2 96-96-43.2-96-96-96z" />
<glyph unicode="&#xe930;" glyph-name="crime-area" d="M1062.4-48h-1100.8l227.2 400h83.2v-64h-44.8l-156.8-272h883.2l-156.8 272h-28.8v64h67.2zM512 464c17.6 0 32 14.4 32 32h-64c0-17.6 14.4-32 32-32zM528 536c0-8.837-7.163-16-16-16s-16 7.163-16 16c0 8.837 7.163 16 16 16s16-7.163 16-16zM608 672c0-53.019-42.981-96-96-96s-96 42.981-96 96c0 53.019 42.981 96 96 96s96-42.981 96-96zM737.6 849.6c-62.4 62.4-144 94.4-225.6 94.4s-163.2-32-225.6-94.4c-124.8-124.8-124.8-328 0-452.8l225.6-225.6 225.6 225.6c126.4 126.4 126.4 328 0 452.8zM608 564.8v-68.8h-32c0-19.2-8-36.8-22.4-48 12.8-11.2 22.4-28.8 22.4-48 0-35.2-28.8-64-64-64s-64 28.8-64 64c0 19.2 8 36.8 22.4 48-12.8 11.2-22.4 28.8-22.4 48h-32v68.8c-28.8 25.6-48 64-48 107.2 0 80 64 144 144 144s144-64 144-144c0-43.2-19.2-80-48-107.2zM544 400c0-17.673-14.327-32-32-32s-32 14.327-32 32c0 17.673 14.327 32 32 32s32-14.327 32-32z" />
<glyph unicode="&#xe931;" glyph-name="check" d="M440 368l-144 144-64-64 208-208 352 352-64 64z" />
<glyph unicode="&#xe932;" glyph-name="car-theft2" d="M292.8 160h-49.6c-14.4 46.4-56 80-107.2 80s-92.8-33.6-107.2-80h-52.8v16c0 97.6 78.4 176 176 176h288c3.2 3.2 8 6.4 11.2 9.6l-27.2 54.4h-112v123.2c16 3.2 32 4.8 48 4.8 27.2 0 54.4-4.8 80-12.8v67.2c-25.6 6.4-52.8 9.6-80 9.6-137.6 0-256-88-300.8-211.2-86.4-35.2-147.2-121.6-147.2-220.8v-80h116.8c3.2-11.2 8-22.4 16-32h-228.8v-48h320c51.2 0 92.8 33.6 107.2 80h25.6c6.4 22.4 14.4 43.2 24 64zM264 524.8v-108.8h-112c-4.8 0-9.6 0-12.8 0 27.2 48 72 88 124.8 108.8zM136 96c-17.6 0-32 14.4-32 32s14.4 32 32 32 32-14.4 32-32-14.4-32-32-32zM904 656c0-26.51-21.49-48-48-48s-48 21.49-48 48c0 26.51 21.49 48 48 48s48-21.49 48-48zM712 656c0-26.51-21.49-48-48-48s-48 21.49-48 48c0 26.51 21.49 48 48 48s48-21.49 48-48zM971.2 832c-46.4 67.2-123.2 112-211.2 112s-164.8-44.8-211.2-112h-44.8v-96h512v96h-44.8zM1208-48c0 166.4-89.6 310.4-222.4 387.2l30.4 60.8h-88c49.6 43.2 83.2 105.6 86.4 176h-508.8c4.8-70.4 36.8-132.8 86.4-176h-88l30.4-60.8c-132.8-76.8-222.4-220.8-222.4-387.2h64c0 96 36.8 185.6 96 252.8v-252.8h128v348.8c30.4 14.4 62.4 24 96 30.4v-379.2h128v379.2c33.6-6.4 65.6-16 96-30.4v-348.8h128v252.8c59.2-67.2 96-156.8 96-252.8h64zM824 464h-128v32h128v-32z" />
<glyph unicode="&#xe933;" glyph-name="car-theft" d="M292.8 160h-49.6c-14.4 46.4-56 80-107.2 80s-92.8-33.6-107.2-80h-52.8v16c0 97.6 78.4 176 176 176h288c3.2 3.2 8 6.4 11.2 9.6l-27.2 54.4h-112v123.2c16 3.2 32 4.8 48 4.8 27.2 0 54.4-4.8 80-12.8v67.2c-25.6 6.4-52.8 9.6-80 9.6-137.6 0-256-88-300.8-211.2-86.4-35.2-147.2-121.6-147.2-220.8v-80h116.8c3.2-11.2 8-22.4 16-32h-228.8v-48h320c51.2 0 92.8 33.6 107.2 80h25.6c6.4 22.4 14.4 43.2 24 64zM264 524.8v-108.8h-112c-4.8 0-9.6 0-12.8 0 27.2 48 72 88 124.8 108.8zM136 96c-17.6 0-32 14.4-32 32s14.4 32 32 32 32-14.4 32-32-14.4-32-32-32zM904 656c0-26.51-21.49-48-48-48s-48 21.49-48 48c0 26.51 21.49 48 48 48s48-21.49 48-48zM712 656c0-26.51-21.49-48-48-48s-48 21.49-48 48c0 26.51 21.49 48 48 48s48-21.49 48-48zM985.6 339.2l30.4 60.8h-88c49.6 43.2 83.2 105.6 86.4 176h-508.8c4.8-70.4 36.8-132.8 86.4-176h-88l30.4-60.8c-132.8-76.8-222.4-220.8-222.4-387.2h64c0 211.2 172.8 384 384 384s384-172.8 384-384h64c0 166.4-89.6 310.4-222.4 387.2zM824 464h-128v32h128v-32zM971.2 832c-46.4 67.2-123.2 112-211.2 112s-164.8-44.8-211.2-112h-44.8v-96h512v96h-44.8z" />
<glyph unicode="&#xe934;" glyph-name="camera" d="M617.6 784l128-160h214.4v-480h-896v480h214.4l128 160h211.2zM648 848h-272l-128-160h-248v-608h1024v608h-248l-128 160zM512 464c44.8 0 80-35.2 80-80s-35.2-80-80-80-80 35.2-80 80 35.2 80 80 80zM512 512c-70.4 0-128-57.6-128-128s57.6-128 128-128 128 57.6 128 128-57.6 128-128 128v0zM64 760h96v-48h-96v48zM736 528c0-26.51-21.49-48-48-48s-48 21.49-48 48c0 26.51 21.49 48 48 48s48-21.49 48-48z" />
<glyph unicode="&#xe935;" glyph-name="calendar" d="M776 820v56h-144v-64h-240v64h-144v-56h-168v-800h864v800h-168zM680 828h48v-80h-48v80zM296 828h48v-80h-48v80zM248 756v-56h144v64h240v-64h144v56h104v-104h-736v104h104zM144 84v520h736v-520h-736zM200 364h176v176h-176v-176zM248 492h80v-80h-80v80zM200 140h176v176h-176v-176zM248 268h80v-80h-80v80zM648 364h176v176h-176v-176zM696 492h80v-80h-80v80zM648 140h176v176h-176v-176zM696 268h80v-80h-80v80zM424 364h176v176h-176v-176zM472 492h80v-80h-80v80zM424 140h176v176h-176v-176zM472 268h80v-80h-80v80z" />
<glyph unicode="&#xe936;" glyph-name="bell" d="M736 356.8v179.2c0 89.6-52.8 166.4-128 201.6v134.4h-192v-134.4c-75.2-36.8-128-113.6-128-201.6v-179.2l-96-96v-108.8h192c0-70.4 57.6-128 128-128s128 57.6 128 128h192v108.8l-96 96zM672 416h-320v48h320v-48zM480 760v48h64v-48h-64zM512 696c88 0 160-72 160-160v-24h-320v24c0 88 72 160 160 160zM512 88c-35.2 0-64 28.8-64 64h128c0-35.2-28.8-64-64-64zM768 216h-512v19.2l96 96v36.8h320v-36.8l96-96v-19.2z" />
<glyph unicode="&#xe937;" glyph-name="battery" d="M0 48h1024v576h-1024v-576zM64 560h896v-448h-896v448zM544 332.8v160l-230.4-230.4 44.8-44.8 121.6 121.6v-160l182.4 182.4-44.8 44.8zM832 752v96h-128v-96h-384v96h-128v-96h-192v-64h1024v64zM840 416h-48v-56h-56v-48h56v-56h48v56h56v48h-56zM128 360h160v-48h-160v48z" />
<glyph unicode="&#xe938;" glyph-name="basket-offers" d="M856 544l-121.6 300.8-60.8-24 110.4-276.8h-544l110.4 275.2-60.8 24-120-299.2h-169.6l224-576h576l224 576h-168zM756.8 32h-488l-174.4 448h836.8l-174.4-448zM656 1072c0-17.673-14.327-32-32-32s-32 14.327-32 32c0 17.673 14.327 32 32 32s32-14.327 32-32zM688 944c0-8.837-7.163-16-16-16s-16 7.163-16 16c0 8.837 7.163 16 16 16s16-7.163 16-16zM368 944c0-8.837-7.163-16-16-16s-16 7.163-16 16c0 8.837 7.163 16 16 16s16-7.163 16-16zM280 880c0-4.418-3.582-8-8-8s-8 3.582-8 8c0 4.418 3.582 8 8 8s8-3.582 8-8zM128 944c0-8.837-7.163-16-16-16s-16 7.163-16 16c0 8.837 7.163 16 16 16s16-7.163 16-16zM192 1040c0-17.673-14.327-32-32-32s-32 14.327-32 32c0 17.673 14.327 32 32 32s32-14.327 32-32zM456 816c0-13.255-10.745-24-24-24s-24 10.745-24 24c0 13.255 10.745 24 24 24s24-10.745 24-24zM264 944c0-13.255-10.745-24-24-24s-24 10.745-24 24c0 13.255 10.745 24 24 24s24-10.745 24-24zM320 1040c0-8.837-7.163-16-16-16s-16 7.163-16 16c0 8.837 7.163 16 16 16s16-7.163 16-16zM160 720c0-8.837-7.163-16-16-16s-16 7.163-16 16c0 8.837 7.163 16 16 16s16-7.163 16-16zM512 1025.6l25.6-41.6h28.8l-14.4-24 14.4-24h-28.8l-25.6-41.6-25.6 41.6h-28.8l14.4 24-14.4 24h28.8l25.6 41.6zM512 1072l-38.4-64h-57.6l28.8-48-28.8-48h57.6l38.4-64 38.4 64h57.6l-28.8 48 28.8 48h-57.6l-38.4 64zM880 881.6l16-25.6h19.2l-9.6-16 9.6-16h-19.2l-16-25.6-16 25.6h-19.2l9.6 16-9.6 16h19.2l16 25.6zM880 912l-24-40h-40l19.2-32-19.2-32h40l24-40 24 40h40l-19.2 32 19.2 32h-40l-24 40zM792 896c0-13.255-10.745-24-24-24s-24 10.745-24 24c0 13.255 10.745 24 24 24s24-10.745 24-24zM144 881.6l16-25.6h19.2l-9.6-16 9.6-16h-19.2l-16-25.6-16 25.6h-19.2l9.6 16-9.6 16h19.2l16 25.6zM144 912l-24-40h-40l19.2-32-19.2-32h40l24-40 24 40h40l-19.2 32 19.2 32h-40l-24 40zM920 944c0-4.418-3.582-8-8-8s-8 3.582-8 8c0 4.418 3.582 8 8 8s8-3.582 8-8zM832 976c0-8.837-7.163-16-16-16s-16 7.163-16 16c0 8.837 7.163 16 16 16s16-7.163 16-16zM345.68 134.946l288.497 288.497 45.254-45.254-288.497-288.497-45.254 45.254zM416 368c27.2 0 48-20.8 48-48s-20.8-48-48-48-48 20.8-48 48 20.8 48 48 48zM416 416c-52.8 0-96-43.2-96-96s43.2-96 96-96 96 43.2 96 96-43.2 96-96 96v0zM608 240c27.2 0 48-20.8 48-48s-20.8-48-48-48-48 20.8-48 48 20.8 48 48 48zM608 288c-52.8 0-96-43.2-96-96s43.2-96 96-96 96 43.2 96 96-43.2 96-96 96v0z" />
<glyph unicode="&#xe939;" glyph-name="basket" d="M856 544l-121.6 300.8-60.8-24 110.4-276.8h-544l110.4 275.2-60.8 24-120-299.2h-169.6l224-576h576l224 576h-168zM756.8 32h-488l-174.4 448h836.8l-174.4-448z" />
<glyph unicode="&#xe93a;" glyph-name="arrow-up" d="M816 320l-48-48-256 256-256-256-48 48 304 304z" />
<glyph unicode="&#xe93b;" glyph-name="arrow-right" d="M384 144l-48 48 256 256-256 256 48 48 304-304z" />
<glyph unicode="&#xe93c;" glyph-name="plan" d="M832 680v-48h136v-368h-136v-48h184v464zM256 128h512v640h-512v-640zM320 704h384v-512h-384v512zM8 216h184v48h-136v368h136v48h-184zM384 472h256v-48h-256v48zM384 584h256v-48h-256v48zM384 360h256v-48h-256v48zM832 464h88v-32h-88v32zM832 544h88v-32h-88v32zM832 384h88v-32h-88v32zM104 464h88v-32h-88v32zM104 544h88v-32h-88v32zM104 384h88v-32h-88v32z" />
<glyph unicode="&#xe93d;" glyph-name="accident" d="M830.4 92.8c97.6 97.6 118.4 243.2 64 361.6 35.2 86.4 19.2 190.4-52.8 260.8l-56 56-83.2-83.2c-43.2 22.4-96 16-132.8-19.2s-41.6-89.6-19.2-132.8l-265.6-265.6c-43.2 22.4-96 16-132.8-19.2-35.2-35.2-41.6-89.6-19.2-132.8l-72-72 57.6-56c70.4-70.4 171.2-88 256-54.4h521.6v64h-267.2c73.6 4.8 145.6 36.8 201.6 92.8zM784 139.2c-65.6-68.8-160-91.2-246.4-67.2l190.4 190.4 86.4-86.4c-9.6-12.8-19.2-25.6-30.4-36.8zM579.2 0h-112l20.8 20.8c28.8-11.2 60.8-17.6 91.2-20.8zM840 217.6l-76.8 76.8 78.4 78.4c3.2 3.2 6.4 6.4 9.6 9.6 14.4-52.8 11.2-112-11.2-164.8zM627.2 612.8c12.8 12.8 32 12.8 44.8 0s12.8-32 0-44.8-32-12.8-44.8 0-12.8 32 0 44.8zM208 193.6c12.8 12.8 32 12.8 44.8 0s12.8-32 0-44.8-32-12.8-44.8 0-12.8 32 0 44.8zM163.2 35.2l-11.2 11.2 25.6 25.6c43.2-22.4 96-16 132.8 19.2 35.2 35.2 41.6 89.6 19.2 132.8l267.2 267.2c43.2-22.4 96-16 132.8 19.2s41.6 89.6 19.2 132.8l36.8 36.8 11.2-11.2c68.8-68.8 68.8-180.8 0-249.6l-384-384c-68.8-68.8-180.8-68.8-249.6 0zM559.677 296.084l67.882 67.882 22.627-22.627-67.882-67.882-22.627 22.627zM198.4 396.8l-134.4 168v160l-121.6 152 51.2 38.4 134.4-168v-160l121.6-152zM382.4 500.8l-60.8 22.4 59.2 148.8-64 160 68.8 171.2 60.8-22.4-59.2-148.8 64-160z" />
<glyph unicode="&#xe93e;" glyph-name="arrow-down" d="M816 576l-48 48-256-256-256 256-48-48 304-304z" />
<glyph unicode="&#xe93f;" glyph-name="arrow-left" d="M640 144l48 48-256 256 256 256-48 48-304-304z" />
<glyph unicode="&#xe940;" glyph-name="pie-chart" d="M576 793.6c164.8-28.8 288-172.8 288-345.6s-123.2-316.8-288-345.6v182.4c65.6 25.6 112 89.6 112 163.2s-46.4 137.6-112 163.2v182.4zM528 848v-272c62.4-8 112-62.4 112-126.4s-49.6-118.4-112-126.4v-272c212.8 8 384 184 384 400s-171.2 387.2-384 396.8v0zM433.6 347.2l-193.6-193.6c67.2-62.4 156.8-102.4 256-105.6v272c-24 4.8-44.8 12.8-62.4 27.2zM384 448c0 65.6 49.6 118.4 112 126.4v321.6c-240-9.6-432-206.4-432-448 0-118.4 46.4-225.6 120-305.6l227.2 227.2c-17.6 22.4-27.2 49.6-27.2 78.4z" />
</font>
</defs>
</svg>
